<svg width="21" height="22" viewBox="0 0 21 22" fill="none" xmlns="http://www.w3.org/2000/svg">
<path d="M20.16 0.0371094H0.84C0.375375 0.0371094 0 0.412484 0 0.877109V20.1971C0 20.6617 0.375375 21.0371 0.84 21.0371H20.16C20.6246 21.0371 21 20.6617 21 20.1971V0.877109C21 0.412484 20.6246 0.0371094 20.16 0.0371094ZM17.7345 6.16648H16.0571C14.742 6.16648 14.4874 6.79123 14.4874 7.70998V9.73386H17.6269L17.2174 12.9022H14.4874V21.0371H11.214V12.9049H8.47612V9.73386H11.214V7.39761C11.214 4.68598 12.8704 3.20811 15.2906 3.20811C16.4509 3.20811 17.4457 3.29473 17.7371 3.33411V6.16648H17.7345Z" fill="#FFF8FB"/>
</svg>
