<svg width="322" height="30" viewBox="0 0 322 30" fill="none" xmlns="http://www.w3.org/2000/svg">
<path d="M16.8403 2.76C16.7003 4.64 16.6303 6.32 16.6303 7.8C16.6303 8.72 16.6603 9.44 16.7203 9.96H16.0303C15.5503 7.64 14.8103 5.98 13.8103 4.98C12.8303 3.96 11.7303 3.45 10.5103 3.45H10.1203C9.58027 3.45 9.18027 3.5 8.92027 3.6C8.68027 3.68 8.51027 3.85 8.41027 4.11C8.33027 4.35 8.29027 4.76 8.29027 5.34V13.02H8.59027C9.63027 13.02 10.5203 12.61 11.2603 11.79C12.0003 10.97 12.4703 10.06 12.6703 9.06H13.3603C13.3003 9.9 13.2703 10.84 13.2703 11.88V13.32C13.2703 14.34 13.3303 15.76 13.4503 17.58H12.7603C12.5803 16.44 12.1103 15.5 11.3503 14.76C10.6103 14 9.69027 13.62 8.59027 13.62H8.29027V20.52C8.29027 21.36 8.37027 21.97 8.53027 22.35C8.71027 22.73 9.02027 22.99 9.46027 23.13C9.92027 23.25 10.6403 23.31 11.6203 23.31V24C8.92027 23.94 6.86027 23.91 5.44027 23.91C4.50027 23.91 3.19027 23.93 1.51027 23.97L0.0702704 24V23.4C0.71027 23.36 1.17027 23.28 1.45027 23.16C1.75027 23.04 1.95027 22.81 2.05027 22.47C2.15027 22.13 2.20027 21.58 2.20027 20.82V5.94C2.20027 5.18 2.14027 4.63 2.02027 4.29C1.92027 3.95 1.73027 3.72 1.45027 3.6C1.17027 3.48 0.71027 3.4 0.0702704 3.36V2.76C2.39027 2.82 5.89027 2.85 10.5703 2.85C13.5103 2.85 15.6003 2.82 16.8403 2.76ZM21.7122 0.539998C22.7522 0.539998 23.5522 0.759998 24.1122 1.2C24.6922 1.64 24.9822 2.28 24.9822 3.12C24.9822 3.96 24.6922 4.6 24.1122 5.04C23.5522 5.48 22.7522 5.7 21.7122 5.7C20.6522 5.7 19.8422 5.48 19.2822 5.04C18.7222 4.6 18.4422 3.96 18.4422 3.12C18.4422 2.28 18.7222 1.64 19.2822 1.2C19.8422 0.759998 20.6522 0.539998 21.7122 0.539998ZM24.5922 21.21C24.5922 22.03 24.7122 22.6 24.9522 22.92C25.2122 23.22 25.6522 23.37 26.2722 23.37V24C24.1122 23.92 22.6922 23.88 22.0122 23.88C21.3322 23.88 19.8322 23.92 17.5122 24V23.37C18.1322 23.37 18.5622 23.22 18.8022 22.92C19.0622 22.6 19.1922 22.03 19.1922 21.21V11.7C19.1922 10.78 19.0622 10.11 18.8022 9.69C18.5622 9.27 18.1322 9.06 17.5122 9.06V8.43C18.1522 8.49 18.7722 8.52 19.3722 8.52C21.4522 8.52 23.1922 8.38 24.5922 8.1V21.21ZM38.6646 8.01C40.2646 8.01 41.3946 8.41 42.0546 9.21C42.3546 9.57 42.5746 10.06 42.7146 10.68C42.8546 11.28 42.9246 12.08 42.9246 13.08V21.21C42.9246 22.03 43.0446 22.6 43.2846 22.92C43.5446 23.22 43.9846 23.37 44.6046 23.37V24C42.4446 23.92 41.0446 23.88 40.4046 23.88C39.7246 23.88 38.3046 23.92 36.1446 24V23.37C36.6646 23.37 37.0246 23.22 37.2246 22.92C37.4246 22.6 37.5246 22.03 37.5246 21.21V11.46C37.5246 10.82 37.4046 10.35 37.1646 10.05C36.9446 9.73 36.5746 9.57 36.0546 9.57C35.4746 9.57 34.9646 9.78 34.5246 10.2C34.1046 10.6 33.8946 11.11 33.8946 11.73V21.21C33.8946 22.03 33.9946 22.6 34.1946 22.92C34.3946 23.22 34.7546 23.37 35.2746 23.37V24C33.2746 23.92 31.9546 23.88 31.3146 23.88C30.6346 23.88 29.1346 23.92 26.8146 24V23.37C27.4346 23.37 27.8646 23.22 28.1046 22.92C28.3646 22.6 28.4946 22.03 28.4946 21.21V11.7C28.4946 10.78 28.3646 10.11 28.1046 9.69C27.8646 9.27 27.4346 9.06 26.8146 9.06V8.43C27.4546 8.49 28.0746 8.52 28.6746 8.52C30.7546 8.52 32.4946 8.38 33.8946 8.1V10.26C34.7946 8.76 36.3846 8.01 38.6646 8.01ZM60.4446 20.7C60.4446 21.62 60.5646 22.29 60.8046 22.71C61.0646 23.13 61.5046 23.34 62.1246 23.34V23.97C61.5046 23.91 60.8846 23.88 60.2646 23.88C58.1846 23.88 56.4446 24.02 55.0446 24.3V22.17C54.6246 22.95 54.1246 23.52 53.5446 23.88C52.9846 24.24 52.2646 24.42 51.3846 24.42C49.5446 24.42 48.0646 23.74 46.9446 22.38C45.8246 21 45.2646 18.91 45.2646 16.11C45.2646 13.45 45.8546 11.44 47.0346 10.08C48.2346 8.7 49.8646 8.01 51.9246 8.01C53.2046 8.01 54.2446 8.26 55.0446 8.76V4.14C55.0446 3.22 54.9146 2.55 54.6546 2.13C54.4146 1.71 53.9846 1.5 53.3646 1.5V0.869999C53.9846 0.93 54.6046 0.96 55.2246 0.96C57.3046 0.96 59.0446 0.819999 60.4446 0.539998V20.7ZM52.8846 22.86C53.4646 22.86 53.9646 22.66 54.3846 22.26C54.8246 21.84 55.0446 21.32 55.0446 20.7V9.39C54.6046 9.13 54.1346 9 53.6346 9C52.6946 9 51.9946 9.6 51.5346 10.8C51.0946 11.98 50.8746 13.78 50.8746 16.2C50.8746 18.66 51.0546 20.39 51.4146 21.39C51.7746 22.37 52.2646 22.86 52.8846 22.86ZM66.2458 19.26C67.2058 19.26 67.9358 19.48 68.4358 19.92C68.9558 20.36 69.2158 21 69.2158 21.84C69.2158 22.68 68.9558 23.32 68.4358 23.76C67.9358 24.2 67.2058 24.42 66.2458 24.42C65.2858 24.42 64.5458 24.2 64.0258 23.76C63.5258 23.32 63.2758 22.68 63.2758 21.84C63.2758 21 63.5258 20.36 64.0258 19.92C64.5458 19.48 65.2858 19.26 66.2458 19.26ZM97.2023 3.36C96.5823 3.5 96.1223 3.72 95.8223 4.02C95.5223 4.3 95.3223 4.74 95.2223 5.34C95.1223 5.94 95.0723 6.84 95.0723 8.04V24C94.6723 23.96 94.3423 23.94 94.0823 23.94C93.8623 23.94 93.4923 23.96 92.9723 24L79.6823 9.48V18.12C79.6823 19.6 79.7423 20.67 79.8623 21.33C79.9823 21.97 80.2423 22.44 80.6423 22.74C81.0623 23.04 81.7523 23.26 82.7123 23.4V24C81.8923 23.94 80.7723 23.91 79.3523 23.91C78.2923 23.91 77.4623 23.94 76.8623 24V23.4C77.4823 23.26 77.9423 23.05 78.2423 22.77C78.5423 22.47 78.7423 22.02 78.8423 21.42C78.9423 20.82 78.9923 19.92 78.9923 18.72V5.94C78.9923 5.18 78.9323 4.63 78.8123 4.29C78.7123 3.95 78.5223 3.72 78.2423 3.6C77.9623 3.48 77.5023 3.4 76.8623 3.36V2.76C77.4623 2.82 78.2923 2.85 79.3523 2.85C80.4323 2.85 81.3523 2.82 82.1123 2.76L94.3823 15.72V8.64C94.3823 7.16 94.3223 6.1 94.2023 5.46C94.0823 4.8 93.8123 4.32 93.3923 4.02C92.9923 3.72 92.3123 3.5 91.3523 3.36V2.76C92.1723 2.82 93.2923 2.85 94.7123 2.85C95.7723 2.85 96.6023 2.82 97.2023 2.76V3.36ZM106.68 21.15C108.14 21.15 109.35 20.48 110.31 19.14L110.82 19.32C110.38 20.72 109.63 21.92 108.57 22.92C107.53 23.92 106.19 24.42 104.55 24.42C102.45 24.42 100.77 23.77 99.5104 22.47C98.2504 21.17 97.6204 19.09 97.6204 16.23C97.6204 13.49 98.3204 11.44 99.7204 10.08C101.14 8.7 103.01 8.01 105.33 8.01C109.11 8.01 111 10.25 111 14.73H103.26C103.24 14.97 103.23 15.33 103.23 15.81C103.23 17.73 103.56 19.1 104.22 19.92C104.9 20.74 105.72 21.15 106.68 21.15ZM105.12 8.7C104 8.7 103.34 10.52 103.14 14.16H106.62C106.64 12.56 106.52 11.25 106.26 10.23C106.02 9.21 105.64 8.7 105.12 8.7ZM126.658 11.46C126.238 11.46 125.868 11.32 125.548 11.04C125.248 10.74 125.098 10.33 125.098 9.81C125.098 9.33 125.238 8.81 125.518 8.25C124.638 8.61 123.988 9.12 123.568 9.78C124.308 10.56 124.678 11.57 124.678 12.81C124.678 14.39 124.088 15.59 122.908 16.41C121.748 17.21 120.188 17.61 118.228 17.61C117.848 17.61 117.568 17.6 117.388 17.58C116.868 17.94 116.608 18.36 116.608 18.84C116.608 19.48 116.968 19.8 117.688 19.8H120.598C122.638 19.8 124.228 20.15 125.368 20.85C126.528 21.53 127.108 22.6 127.108 24.06C127.108 25.1 126.768 26.04 126.088 26.88C125.428 27.72 124.398 28.39 122.998 28.89C121.618 29.39 119.888 29.64 117.808 29.64C115.748 29.64 114.128 29.41 112.948 28.95C111.768 28.49 111.178 27.84 111.178 27C111.178 26.42 111.468 25.89 112.048 25.41C112.628 24.93 113.508 24.55 114.688 24.27L114.988 24.75C114.448 25.41 114.178 26.05 114.178 26.67C114.178 27.45 114.528 28.05 115.228 28.47C115.948 28.91 116.948 29.13 118.228 29.13C119.548 29.13 120.558 28.86 121.258 28.32C121.978 27.8 122.338 27.1 122.338 26.22C122.338 25.6 122.098 25.1 121.618 24.72C121.158 24.36 120.338 24.18 119.158 24.18H117.538C116.178 24.18 115.138 23.92 114.418 23.4C113.698 22.88 113.338 22.18 113.338 21.3C113.338 20.5 113.618 19.8 114.178 19.2C114.758 18.6 115.588 18.04 116.668 17.52C115.148 17.32 113.948 16.83 113.068 16.05C112.208 15.25 111.778 14.17 111.778 12.81C111.778 11.23 112.358 10.04 113.518 9.24C114.698 8.42 116.268 8.01 118.228 8.01C120.328 8.01 121.948 8.45 123.088 9.33C123.468 8.81 123.928 8.4 124.468 8.1C125.008 7.8 125.578 7.65 126.178 7.65C126.838 7.65 127.348 7.84 127.708 8.22C128.068 8.58 128.248 9.05 128.248 9.63C128.248 10.19 128.098 10.64 127.798 10.98C127.498 11.3 127.118 11.46 126.658 11.46ZM118.228 17.07C118.628 17.07 118.928 16.75 119.128 16.11C119.348 15.45 119.458 14.35 119.458 12.81C119.458 11.27 119.348 10.18 119.128 9.54C118.928 8.88 118.628 8.55 118.228 8.55C117.828 8.55 117.518 8.88 117.298 9.54C117.098 10.18 116.998 11.27 116.998 12.81C116.998 14.35 117.098 15.45 117.298 16.11C117.518 16.75 117.828 17.07 118.228 17.07ZM135.742 8.01C138.202 8.01 140.102 8.66 141.442 9.96C142.782 11.24 143.452 13.33 143.452 16.23C143.452 19.13 142.782 21.22 141.442 22.5C140.102 23.78 138.202 24.42 135.742 24.42C133.282 24.42 131.382 23.78 130.042 22.5C128.702 21.22 128.032 19.13 128.032 16.23C128.032 13.33 128.702 11.24 130.042 9.96C131.382 8.66 133.282 8.01 135.742 8.01ZM135.742 8.61C135.102 8.61 134.592 9.24 134.212 10.5C133.832 11.76 133.642 13.67 133.642 16.23C133.642 18.79 133.832 20.7 134.212 21.96C134.592 23.2 135.102 23.82 135.742 23.82C136.382 23.82 136.892 23.2 137.272 21.96C137.652 20.7 137.842 18.79 137.842 16.23C137.842 13.67 137.652 11.76 137.272 10.5C136.892 9.24 136.382 8.61 135.742 8.61ZM151.347 8.43H154.287V9.03H151.347V21.48C151.347 21.88 151.417 22.16 151.557 22.32C151.697 22.48 151.927 22.56 152.247 22.56C152.487 22.56 152.757 22.49 153.057 22.35C153.357 22.21 153.627 21.99 153.867 21.69L154.317 22.05C153.397 23.63 151.977 24.42 150.057 24.42C148.677 24.42 147.647 24.08 146.967 23.4C146.547 22.98 146.267 22.46 146.127 21.84C146.007 21.22 145.947 20.35 145.947 19.23V9.03H143.667V8.43H145.947V4.89C147.027 4.89 147.997 4.79 148.857 4.59C149.737 4.37 150.567 4.03 151.347 3.57V8.43ZM158.505 0.539998C159.545 0.539998 160.345 0.759998 160.905 1.2C161.485 1.64 161.775 2.28 161.775 3.12C161.775 3.96 161.485 4.6 160.905 5.04C160.345 5.48 159.545 5.7 158.505 5.7C157.445 5.7 156.635 5.48 156.075 5.04C155.515 4.6 155.235 3.96 155.235 3.12C155.235 2.28 155.515 1.64 156.075 1.2C156.635 0.759998 157.445 0.539998 158.505 0.539998ZM161.385 21.21C161.385 22.03 161.505 22.6 161.745 22.92C162.005 23.22 162.445 23.37 163.065 23.37V24C160.905 23.92 159.485 23.88 158.805 23.88C158.125 23.88 156.625 23.92 154.305 24V23.37C154.925 23.37 155.355 23.22 155.595 22.92C155.855 22.6 155.985 22.03 155.985 21.21V11.7C155.985 10.78 155.855 10.11 155.595 9.69C155.355 9.27 154.925 9.06 154.305 9.06V8.43C154.945 8.49 155.565 8.52 156.165 8.52C158.245 8.52 159.985 8.38 161.385 8.1V21.21ZM167.508 24.21C166.228 24.21 165.258 23.87 164.598 23.19C163.958 22.49 163.638 21.62 163.638 20.58C163.638 19.68 163.868 18.94 164.328 18.36C164.808 17.76 165.368 17.3 166.008 16.98C166.648 16.66 167.478 16.33 168.498 15.99C169.578 15.63 170.368 15.3 170.868 15C171.368 14.7 171.618 14.28 171.618 13.74V11.07C171.618 10.43 171.458 9.86 171.138 9.36C170.818 8.86 170.268 8.61 169.488 8.61C168.868 8.61 168.308 8.78 167.808 9.12C168.488 9.36 168.988 9.72 169.308 10.2C169.648 10.66 169.818 11.18 169.818 11.76C169.818 12.54 169.538 13.17 168.978 13.65C168.438 14.11 167.778 14.34 166.998 14.34C166.218 14.34 165.598 14.1 165.138 13.62C164.698 13.12 164.478 12.49 164.478 11.73C164.478 11.13 164.628 10.61 164.928 10.17C165.228 9.73 165.698 9.33 166.338 8.97C167.458 8.33 169.058 8.01 171.138 8.01C172.238 8.01 173.188 8.12 173.988 8.34C174.788 8.54 175.468 8.93 176.028 9.51C176.428 9.93 176.688 10.46 176.808 11.1C176.948 11.72 177.018 12.59 177.018 13.71V21.75C177.018 22.25 177.048 22.59 177.108 22.77C177.188 22.95 177.318 23.04 177.498 23.04C177.638 23.04 177.788 23 177.948 22.92C178.108 22.82 178.258 22.71 178.398 22.59L178.698 23.1C177.838 23.84 176.608 24.21 175.008 24.21C173.808 24.21 172.968 24.01 172.488 23.61C172.008 23.19 171.748 22.63 171.708 21.93C170.768 23.45 169.368 24.21 167.508 24.21ZM170.508 21.81C170.928 21.81 171.298 21.64 171.618 21.3V14.97C171.438 15.27 171.108 15.66 170.628 16.14C170.088 16.66 169.678 17.17 169.398 17.67C169.118 18.15 168.978 18.81 168.978 19.65C168.978 21.09 169.488 21.81 170.508 21.81ZM185.875 8.43H188.815V9.03H185.875V21.48C185.875 21.88 185.945 22.16 186.085 22.32C186.225 22.48 186.455 22.56 186.775 22.56C187.015 22.56 187.285 22.49 187.585 22.35C187.885 22.21 188.155 21.99 188.395 21.69L188.845 22.05C187.925 23.63 186.505 24.42 184.585 24.42C183.205 24.42 182.175 24.08 181.495 23.4C181.075 22.98 180.795 22.46 180.655 21.84C180.535 21.22 180.475 20.35 180.475 19.23V9.03H178.195V8.43H180.475V4.89C181.555 4.89 182.525 4.79 183.385 4.59C184.265 4.37 185.095 4.03 185.875 3.57V8.43ZM198.018 21.15C199.478 21.15 200.688 20.48 201.648 19.14L202.158 19.32C201.718 20.72 200.968 21.92 199.908 22.92C198.868 23.92 197.528 24.42 195.888 24.42C193.788 24.42 192.108 23.77 190.848 22.47C189.588 21.17 188.958 19.09 188.958 16.23C188.958 13.49 189.658 11.44 191.058 10.08C192.478 8.7 194.348 8.01 196.668 8.01C200.448 8.01 202.338 10.25 202.338 14.73H194.598C194.578 14.97 194.568 15.33 194.568 15.81C194.568 17.73 194.898 19.1 195.558 19.92C196.238 20.74 197.058 21.15 198.018 21.15ZM196.458 8.7C195.338 8.7 194.678 10.52 194.478 14.16H197.958C197.978 12.56 197.858 11.25 197.598 10.23C197.358 9.21 196.978 8.7 196.458 8.7ZM206.745 19.26C207.705 19.26 208.435 19.48 208.935 19.92C209.455 20.36 209.715 21 209.715 21.84C209.715 22.68 209.455 23.32 208.935 23.76C208.435 24.2 207.705 24.42 206.745 24.42C205.785 24.42 205.045 24.2 204.525 23.76C204.025 23.32 203.775 22.68 203.775 21.84C203.775 21 204.025 20.36 204.525 19.92C205.045 19.48 205.785 19.26 206.745 19.26ZM227.292 2.76C231.432 2.76 234.532 3.65 236.592 5.43C238.652 7.19 239.682 9.76 239.682 13.14C239.682 15.32 239.172 17.23 238.152 18.87C237.152 20.49 235.702 21.75 233.802 22.65C231.902 23.55 229.642 24 227.022 24L225.162 23.97C223.962 23.93 223.082 23.91 222.522 23.91C220.182 23.91 218.442 23.94 217.302 24V23.4C217.942 23.36 218.402 23.28 218.682 23.16C218.982 23.04 219.182 22.81 219.282 22.47C219.382 22.13 219.432 21.58 219.432 20.82V5.94C219.432 5.18 219.372 4.63 219.252 4.29C219.152 3.95 218.962 3.72 218.682 3.6C218.402 3.48 217.942 3.4 217.302 3.36V2.76C218.222 2.82 219.582 2.85 221.382 2.85H222.462L223.782 2.82C225.462 2.78 226.632 2.76 227.292 2.76ZM227.742 3.3C227.122 3.3 226.652 3.37 226.332 3.51C226.032 3.65 225.822 3.9 225.702 4.26C225.582 4.62 225.522 5.16 225.522 5.88V20.88C225.522 21.6 225.582 22.14 225.702 22.5C225.822 22.86 226.032 23.11 226.332 23.25C226.652 23.39 227.132 23.46 227.772 23.46C229.752 23.46 231.182 22.61 232.062 20.91C232.942 19.19 233.382 16.64 233.382 13.26C233.382 9.88 232.922 7.38 232.002 5.76C231.102 4.12 229.682 3.3 227.742 3.3ZM250.168 21.15C251.628 21.15 252.838 20.48 253.798 19.14L254.308 19.32C253.868 20.72 253.118 21.92 252.058 22.92C251.018 23.92 249.678 24.42 248.038 24.42C245.938 24.42 244.258 23.77 242.998 22.47C241.738 21.17 241.108 19.09 241.108 16.23C241.108 13.49 241.808 11.44 243.208 10.08C244.628 8.7 246.498 8.01 248.818 8.01C252.598 8.01 254.488 10.25 254.488 14.73H246.748C246.728 14.97 246.718 15.33 246.718 15.81C246.718 17.73 247.048 19.1 247.708 19.92C248.388 20.74 249.208 21.15 250.168 21.15ZM248.608 8.7C247.488 8.7 246.828 10.52 246.628 14.16H250.108C250.128 12.56 250.008 11.25 249.748 10.23C249.508 9.21 249.128 8.7 248.608 8.7ZM262.286 21.21C262.286 22.03 262.406 22.6 262.646 22.92C262.906 23.22 263.346 23.37 263.966 23.37V24C261.806 23.92 260.386 23.88 259.706 23.88C259.026 23.88 257.526 23.92 255.206 24V23.37C255.826 23.37 256.256 23.22 256.496 22.92C256.756 22.6 256.886 22.03 256.886 21.21V4.14C256.886 3.22 256.756 2.55 256.496 2.13C256.256 1.71 255.826 1.5 255.206 1.5V0.869999C255.826 0.93 256.446 0.96 257.066 0.96C259.146 0.96 260.886 0.819999 262.286 0.539998V21.21ZM268.74 0.539998C269.78 0.539998 270.58 0.759998 271.14 1.2C271.72 1.64 272.01 2.28 272.01 3.12C272.01 3.96 271.72 4.6 271.14 5.04C270.58 5.48 269.78 5.7 268.74 5.7C267.68 5.7 266.87 5.48 266.31 5.04C265.75 4.6 265.47 3.96 265.47 3.12C265.47 2.28 265.75 1.64 266.31 1.2C266.87 0.759998 267.68 0.539998 268.74 0.539998ZM271.62 21.21C271.62 22.03 271.74 22.6 271.98 22.92C272.24 23.22 272.68 23.37 273.3 23.37V24C271.14 23.92 269.72 23.88 269.04 23.88C268.36 23.88 266.86 23.92 264.54 24V23.37C265.16 23.37 265.59 23.22 265.83 22.92C266.09 22.6 266.22 22.03 266.22 21.21V11.7C266.22 10.78 266.09 10.11 265.83 9.69C265.59 9.27 265.16 9.06 264.54 9.06V8.43C265.18 8.49 265.8 8.52 266.4 8.52C268.48 8.52 270.22 8.38 271.62 8.1V21.21ZM286.357 8.55C287.497 8.55 288.267 8.51 288.666 8.43V9.06C288.246 9.2 287.856 9.49 287.496 9.93C287.156 10.37 286.836 11.05 286.536 11.97L282.486 24C282.166 23.96 281.686 23.94 281.046 23.94C280.386 23.94 279.896 23.96 279.576 24L274.356 10.74C273.916 9.62 273.336 9.06 272.616 9.06V8.43C274.196 8.55 275.976 8.61 277.956 8.61C278.956 8.61 280.256 8.55 281.856 8.43V9.06C281.236 9.06 280.786 9.1 280.506 9.18C280.246 9.26 280.116 9.47 280.116 9.81C280.116 9.87 280.136 10 280.176 10.2L283.446 19.29L284.826 15.15C285.206 13.99 285.396 12.97 285.396 12.09C285.396 11.15 285.196 10.42 284.796 9.9C284.396 9.38 283.866 9.1 283.206 9.06V8.43C283.946 8.51 284.996 8.55 286.357 8.55ZM297.456 21.15C298.916 21.15 300.126 20.48 301.086 19.14L301.596 19.32C301.156 20.72 300.406 21.92 299.346 22.92C298.306 23.92 296.966 24.42 295.326 24.42C293.226 24.42 291.546 23.77 290.286 22.47C289.026 21.17 288.396 19.09 288.396 16.23C288.396 13.49 289.096 11.44 290.496 10.08C291.916 8.7 293.786 8.01 296.106 8.01C299.886 8.01 301.776 10.25 301.776 14.73H294.036C294.016 14.97 294.006 15.33 294.006 15.81C294.006 17.73 294.336 19.1 294.996 19.92C295.676 20.74 296.496 21.15 297.456 21.15ZM295.896 8.7C294.776 8.7 294.116 10.52 293.916 14.16H297.396C297.416 12.56 297.296 11.25 297.036 10.23C296.796 9.21 296.416 8.7 295.896 8.7ZM313.241 8.01C314.221 8.01 314.921 8.31 315.341 8.91C315.781 9.51 316.001 10.22 316.001 11.04C316.001 11.94 315.741 12.66 315.221 13.2C314.721 13.72 314.061 13.98 313.241 13.98C312.381 13.98 311.721 13.79 311.261 13.41C310.801 13.01 310.571 12.48 310.571 11.82C310.571 10.64 311.081 9.71 312.101 9.03C311.741 9.03 311.421 9.1 311.141 9.24C310.641 9.46 310.221 9.82 309.881 10.32C309.541 10.8 309.371 11.33 309.371 11.91V20.91C309.371 21.85 309.561 22.5 309.941 22.86C310.341 23.2 311.011 23.37 311.951 23.37V24C311.691 24 311.471 23.99 311.291 23.97C309.191 23.91 307.791 23.88 307.091 23.88C306.471 23.88 305.081 23.91 302.921 23.97C302.761 23.99 302.551 24 302.291 24V23.37C302.911 23.37 303.341 23.22 303.581 22.92C303.841 22.6 303.971 22.03 303.971 21.21V11.7C303.971 10.78 303.841 10.11 303.581 9.69C303.341 9.27 302.911 9.06 302.291 9.06V8.43C302.931 8.49 303.551 8.52 304.151 8.52C306.231 8.52 307.971 8.38 309.371 8.1V10.26C310.131 8.76 311.421 8.01 313.241 8.01ZM318.533 19.26C319.493 19.26 320.223 19.48 320.723 19.92C321.243 20.36 321.503 21 321.503 21.84C321.503 22.68 321.243 23.32 320.723 23.76C320.223 24.2 319.493 24.42 318.533 24.42C317.573 24.42 316.833 24.2 316.313 23.76C315.813 23.32 315.563 22.68 315.563 21.84C315.563 21 315.813 20.36 316.313 19.92C316.833 19.48 317.573 19.26 318.533 19.26Z" fill="#FFF8FB"/>
</svg>
