<svg width="21" height="22" viewBox="0 0 21 22" fill="none" xmlns="http://www.w3.org/2000/svg">
<path d="M10.4972 5.14959C7.51584 5.14959 5.10976 7.55572 5.10976 10.5371C5.10976 13.5185 7.51584 15.9246 10.4972 15.9246C13.4785 15.9246 15.8846 13.5185 15.8846 10.5371C15.8846 7.55572 13.4785 5.14959 10.4972 5.14959ZM10.4972 14.0386C8.56916 14.0386 6.99575 12.4652 6.99575 10.5371C6.99575 8.60906 8.56916 7.03562 10.4972 7.03562C12.4252 7.03562 13.9986 8.60906 13.9986 10.5371C13.9986 12.4652 12.4252 14.0386 10.4972 14.0386ZM16.1052 3.67335C15.4092 3.67335 14.847 4.23548 14.847 4.93157C14.847 5.62767 15.4092 6.1898 16.1052 6.1898C16.8013 6.1898 17.3634 5.63029 17.3634 4.93157C17.3636 4.76628 17.3312 4.60257 17.2681 4.44982C17.2049 4.29708 17.1123 4.15829 16.9954 4.04141C16.8785 3.92453 16.7397 3.83186 16.587 3.7687C16.4342 3.70554 16.2705 3.67314 16.1052 3.67335ZM20.9988 10.5371C20.9988 9.08713 21.012 7.65028 20.9305 6.20293C20.8491 4.5218 20.4656 3.02979 19.2363 1.80046C18.0044 0.568499 16.515 0.187617 14.8339 0.106187C13.3839 0.0247568 11.9471 0.0378907 10.4998 0.0378907C9.04985 0.0378907 7.61303 0.0247568 6.16571 0.106187C4.4846 0.187617 2.99262 0.571126 1.76331 1.80046C0.53138 3.03241 0.150505 4.5218 0.0690761 6.20293C-0.0123524 7.65291 0.000781304 9.08976 0.000781304 10.5371C0.000781304 11.9845 -0.0123524 13.4239 0.0690761 14.8713C0.150505 16.5524 0.534007 18.0444 1.76331 19.2738C2.99525 20.5057 4.4846 20.8866 6.16571 20.968C7.61566 21.0495 9.05248 21.0363 10.4998 21.0363C11.9498 21.0363 13.3866 21.0495 14.8339 20.968C16.515 20.8866 18.007 20.5031 19.2363 19.2738C20.4682 18.0418 20.8491 16.5524 20.9305 14.8713C21.0146 13.4239 20.9988 11.9871 20.9988 10.5371ZM18.6873 16.731C18.4956 17.2091 18.2644 17.5664 17.894 17.9341C17.5237 18.3045 17.1691 18.5356 16.691 18.7274C15.3093 19.2764 12.0286 19.1529 10.4972 19.1529C8.9658 19.1529 5.68239 19.2764 4.30073 18.73C3.82267 18.5383 3.46543 18.3071 3.09769 17.9367C2.72732 17.5664 2.49617 17.2117 2.30442 16.7337C1.75806 15.3494 1.88152 12.0685 1.88152 10.5371C1.88152 9.0057 1.75806 5.72223 2.30442 4.34055C2.49617 3.86247 2.72732 3.50523 3.09769 3.13749C3.46806 2.76974 3.82267 2.53595 4.30073 2.3442C5.68239 1.79783 8.9658 1.92129 10.4972 1.92129C12.0286 1.92129 15.312 1.79783 16.6936 2.3442C17.1717 2.53595 17.5289 2.76711 17.8967 3.13749C18.267 3.50786 18.4982 3.86247 18.6899 4.34055C19.2363 5.72223 19.1128 9.0057 19.1128 10.5371C19.1128 12.0685 19.2363 15.3494 18.6873 16.731Z" fill="#FFF8FB"/>
</svg>
