<svg width="50" height="50" viewBox="0 0 50 50" fill="none" xmlns="http://www.w3.org/2000/svg">
<g clip-path="url(#clip0)">
<path d="M28.8859 27.9594C30.1588 28.0875 31.3895 28.3087 32.3573 29.3567C33.1253 30.195 33.525 31.2313 33.6512 32.3957C33.7564 33.3738 33.6407 34.3169 33.5145 35.295C33.0621 38.7764 31.2949 41.3962 29.2331 43.8531C29.0858 44.0277 28.9069 44.1558 28.8859 44.412C28.0864 44.9709 27.3921 45.6695 26.6979 46.3681C26.498 46.3914 26.3402 46.5195 26.1824 46.6359C24.068 48.2078 21.7748 49.3256 19.2501 49.7797C17.0726 50.1756 14.9266 50.0941 12.8753 49.0695C10.5505 47.9051 9.08827 45.8907 8.2362 43.2825C7.28944 40.4065 7.27893 37.4374 7.63659 34.4566C7.9101 32.1279 8.54128 29.8923 9.3092 27.7033C9.35128 27.5985 9.35126 27.4704 9.39334 27.3656C9.54061 26.993 9.4775 26.8766 9.08828 26.9814C7.17374 27.4937 5.24867 28.006 3.32361 28.4834C2.49257 28.693 1.68257 29.0074 0.819973 29.0423C0.788415 29.0423 0.746337 29.0307 0.714778 29.054C0.472831 29.2519 0.167766 29.4382 0.0310133 29.019C-0.116259 28.5649 0.29401 28.5067 0.567516 28.4252C2.38738 27.9594 4.20724 27.5053 6.02711 27.0279C7.23685 26.7136 8.43608 26.3992 9.64582 26.0848C9.85621 26.0266 9.95089 25.8752 10.0456 25.6773C11.0344 23.6862 12.1284 21.7767 13.4118 20.0068C15.1054 17.6897 16.8096 15.3842 18.8819 13.4398C19.5341 12.8226 20.1337 12.0891 20.8175 11.5069C21.5433 10.8898 22.2271 10.1912 22.9529 9.57405C23.1107 9.43433 23.3316 9.35283 23.3737 9.08502C23.5105 9.10831 23.6051 9.01516 23.6998 8.93365C25.3619 7.54805 27.1081 6.29052 28.9069 5.1378C30.0851 4.41589 31.2844 3.72891 32.5257 3.13509C33.0621 2.70427 33.6828 2.47139 34.3034 2.22687C37.2384 0.911136 40.2259 -0.136796 43.4449 0.0145716C44.6546 0.07279 45.6855 0.573469 46.4534 1.64469C47.0215 2.43646 47.1056 3.34469 47.0004 4.28783C46.7795 6.11589 45.9906 7.65285 44.9281 9.0268C42.6138 12.0309 39.6684 14.1151 36.6072 16.013C34.1351 17.55 31.5579 18.8657 28.928 20.0417C28.928 19.7739 28.928 19.4945 28.928 19.2267C28.9596 19.2267 29.0016 19.2267 29.0332 19.215C31.8209 17.8527 34.6295 16.5137 37.2594 14.7904C39.5632 13.2884 41.7723 11.6699 43.6447 9.53912C44.8755 8.13023 45.8854 6.55835 46.2325 4.57892C46.4008 3.57756 46.4324 2.59949 45.654 1.84265C45.0123 1.21389 44.2338 0.911147 43.4028 0.841285C41.8564 0.713204 40.3311 0.957716 38.8373 1.38853C35.3554 2.40153 32.2416 4.25287 29.2541 6.4186C29.0858 6.53504 28.928 6.65149 28.9175 6.896C28.644 6.77957 28.5072 7.03573 28.3284 7.16381C26.5716 8.52613 24.9306 10.0514 23.3527 11.6583C19.7445 15.3959 16.6939 19.5876 14.5689 24.7458C16.0206 24.2568 17.325 23.8259 18.6189 23.3718C20.1968 22.8129 21.7748 22.2424 23.3422 21.6718C23.3842 21.9164 23.3948 22.1493 23.3422 22.3938C23.2264 22.452 23.1213 22.5102 23.0055 22.5451C20.1863 23.628 17.3461 24.641 14.4742 25.5376C14.1587 25.6307 13.9798 25.8053 13.8746 26.1547C13.4854 27.4588 13.0541 28.7396 12.6965 30.0553C11.6235 33.9792 10.9397 37.973 11.0765 42.0949C11.129 43.6435 11.392 45.1572 12.16 46.5079C12.8753 47.7654 13.8641 48.5804 15.1685 48.9414C16.7149 49.3606 18.2613 49.1626 19.7971 48.8599C21.1962 48.5804 22.5216 47.9983 23.8155 47.3811C24.2784 47.1599 24.8675 46.9736 25.1515 46.3798C25.2883 46.3448 25.4145 46.3332 25.5407 46.2517C26.782 45.39 27.9286 44.4003 28.9385 43.2127C29.5276 42.6072 30.0431 41.9202 30.5059 41.1983C32.0838 38.7299 33.1253 36.0518 33.0411 32.9546C33.0095 31.9067 32.736 30.9519 32.1575 30.1019C31.4737 29.0889 29.6959 28.5533 28.9069 28.9026C28.423 28.856 27.9812 29.0423 27.5394 29.2053C25.7932 29.869 24.5309 31.243 23.3632 32.745C21.1646 35.7491 19.776 39.2072 18.7557 42.875C18.5242 43.7017 18.2507 44.5168 18.2402 45.4017C18.0719 45.6579 18.0404 45.9606 17.9878 46.2517C17.5354 46.2051 17.5985 45.8325 17.5985 45.5065C17.6406 42.1764 18.2192 38.9744 19.4605 35.947C20.3231 33.8512 21.4276 31.9299 23.0581 30.4395C23.2054 30.2998 23.3632 30.1717 23.3737 29.9272C23.5841 30.0204 23.6893 29.8341 23.8261 29.7293C24.1101 29.4964 24.3731 29.1937 24.6887 29.054C26.0141 28.4368 27.3921 27.9245 28.8859 27.9594Z" fill="#BD96C3"/>
<path d="M28.9027 27.938C27.3223 27.8916 25.8643 28.4134 24.4397 29.0279C24.1058 29.1786 23.8275 29.4801 23.527 29.7004C23.3823 29.8047 23.2711 30.0018 23.0485 29.8975C23.0373 27.3931 23.0373 24.8887 23.0262 22.3843C23.0707 22.1408 23.0707 21.909 23.0262 21.6655C23.0262 18.3495 23.0262 15.0219 23.0373 11.7059C24.7068 10.1059 26.443 8.587 28.3017 7.23046C28.4798 7.10292 28.6356 6.84784 28.925 6.96378C28.925 8.38989 28.9138 9.81598 28.925 11.2421C28.925 13.9088 28.9361 16.564 28.9472 19.2307C28.9472 19.4973 28.9472 19.7756 28.9472 20.0423C28.925 22.6858 28.9138 25.3177 28.9027 27.938Z" fill="#171717"/>
<path d="M26.6448 46.3502C27.3363 45.6461 28.0383 44.942 28.8242 44.3787C28.8137 45.3879 28.8137 45.3879 29.7358 45.3762C32.8267 45.3527 35.9177 45.4466 38.9982 45.2705C40.4756 45.1884 41.9425 45.0007 43.378 44.5899C46.4271 43.7215 48.0302 41.4215 48.6484 38.0887C49.0046 36.1641 49.0884 34.2278 49.1094 32.268C49.1094 31.869 49.2037 31.7517 49.5704 31.7517C49.9267 31.7517 50 31.869 50 32.2563C49.9895 36.7861 49.9895 41.3275 50 45.8573C50 46.2446 49.9162 46.3502 49.5704 46.3502C41.9321 46.3385 34.2832 46.3502 26.6448 46.3502Z" fill="#171717"/>
<path d="M28.7669 5.06991C26.9559 6.25276 25.1979 7.54315 23.5245 8.96495C23.4292 9.04859 23.3339 9.14415 23.1962 9.12025C23.1962 7.29222 23.1962 5.46419 23.1856 3.63616C23.1856 2.72811 23.2598 2.90734 22.5078 2.89539C21.0781 2.88344 19.6483 2.88343 18.2292 2.90732C17.8479 2.91927 17.7632 2.77589 17.7632 2.36966C17.7632 1.96343 17.8479 1.83201 18.2292 1.83201C23.408 1.84395 28.5975 1.84398 33.7763 1.85593C33.9352 1.85593 34.1893 1.70059 34.2105 2.08292C33.5857 2.33383 32.9714 2.58474 32.4207 3.01487C32.3678 2.96708 32.3148 2.89539 32.2618 2.89539C31.171 2.89539 30.0908 2.89539 28.9999 2.89539C28.7563 2.89539 28.7669 3.03877 28.7669 3.22994C28.7669 3.83928 28.7669 4.46057 28.7669 5.06991Z" fill="#171717"/>
<path d="M25.0796 46.3328C22.8235 46.3328 20.5566 46.3328 18.3004 46.3211C18.1285 46.3211 17.9029 46.4377 17.7632 46.2045C17.8169 45.9129 17.8491 45.6097 18.021 45.3531C19.6111 45.3531 21.2119 45.3415 22.802 45.3765C23.2317 45.3881 23.2854 45.2249 23.2854 44.8167C23.264 42.5076 23.2855 40.1869 23.2747 37.8778C23.2747 36.1518 23.264 34.4258 23.2532 32.6882C24.4458 31.1838 25.735 29.8076 27.5185 29.1429C27.9697 28.968 28.421 28.793 28.9152 28.8397C28.9152 31.0788 28.9259 33.3062 28.9259 35.5454C28.9366 38.0877 28.9366 40.63 28.9474 43.1724C27.916 44.3502 26.7449 45.3415 25.4772 46.2162C25.3483 46.2861 25.2193 46.2978 25.0796 46.3328Z" fill="#171717"/>
</g>
<defs>
<clipPath id="clip0">
<rect width="50" height="50" fill="white"/>
</clipPath>
</defs>
</svg>
