<svg width="1280" height="421" viewBox="0 0 1280 421" fill="none" xmlns="http://www.w3.org/2000/svg">
<path d="M274.595 235.473C286.695 236.547 298.395 238.404 307.595 247.197C314.895 254.232 318.695 262.927 319.895 272.698C320.895 280.905 319.795 288.819 318.595 297.026C314.295 326.239 297.495 348.222 277.895 368.838C276.495 370.303 274.795 371.378 274.595 373.528C266.995 378.218 260.395 384.08 253.795 389.942C251.895 390.137 250.395 391.212 248.895 392.189C228.795 405.379 206.995 414.758 182.995 418.569C162.295 421.891 141.895 421.207 122.395 412.609C100.295 402.839 86.3948 385.936 78.2948 364.05C69.2948 339.918 69.1949 315.003 72.5949 289.991C75.1949 270.45 81.195 251.691 88.495 233.323C88.895 232.444 88.8948 231.369 89.2948 230.49C90.6948 227.363 90.0949 226.386 86.3949 227.266C68.1949 231.565 49.8949 235.863 31.5949 239.869C23.6949 241.628 15.9948 244.266 7.79482 244.559C7.49482 244.559 7.09482 244.461 6.79482 244.657C4.49482 246.318 1.59482 247.881 0.294817 244.364C-1.10518 240.553 2.79492 240.065 5.39492 239.381C22.6949 235.473 39.9948 231.662 57.2948 227.656C68.7948 225.018 80.195 222.381 91.695 219.743C93.695 219.254 94.595 217.984 95.495 216.323C104.895 199.616 115.295 183.592 127.495 168.741C143.595 149.298 159.795 129.953 179.495 113.637C185.695 108.458 191.395 102.303 197.895 97.418C204.795 92.2397 211.295 86.3774 218.195 81.1991C219.695 80.0267 221.795 79.3428 222.195 77.0956C223.495 77.291 224.395 76.5094 225.295 75.8254C241.095 64.1987 257.695 53.6467 274.795 43.974C285.995 37.9164 297.395 32.152 309.195 27.1691C314.295 23.5541 320.195 21.6 326.095 19.5482C353.995 8.50774 382.395 -0.285566 412.995 0.984577C424.495 1.47309 434.295 5.67434 441.595 14.663C446.995 21.3069 447.795 28.9279 446.795 36.8419C444.695 52.1813 437.195 65.0781 427.095 76.6071C405.095 101.815 377.095 119.303 347.995 135.229C324.495 148.126 299.995 159.166 274.995 169.034C274.995 166.787 274.995 164.442 274.995 162.195C275.295 162.195 275.695 162.195 275.995 162.098C302.495 150.666 329.195 139.43 354.195 124.97C376.095 112.367 397.095 98.7857 414.895 80.906C426.595 69.0839 436.195 55.894 439.495 39.2845C441.095 30.882 441.395 22.6749 433.995 16.3242C427.895 11.0482 420.495 8.50783 412.595 7.92161C397.895 6.84687 383.395 8.8986 369.195 12.5136C336.095 21.0138 306.495 36.5486 278.095 54.7214C276.495 55.6985 274.995 56.6756 274.895 58.7274C272.295 57.7503 270.995 59.8998 269.295 60.9746C252.595 72.4059 236.995 85.2049 221.995 98.6879C187.695 130.051 158.695 165.224 138.495 208.507C152.295 204.403 164.695 200.788 176.995 196.978C191.995 192.288 206.995 187.5 221.895 182.713C222.295 184.765 222.395 186.719 221.895 188.771C220.795 189.259 219.795 189.747 218.695 190.041C191.895 199.127 164.895 207.627 137.595 215.151C134.595 215.932 132.895 217.398 131.895 220.329C128.195 231.271 124.095 242.019 120.695 253.059C110.495 285.985 103.995 319.497 105.295 354.084C105.795 367.079 108.295 379.781 115.595 391.114C122.395 401.666 131.795 408.505 144.195 411.534C158.895 415.052 173.595 413.39 188.195 410.85C201.495 408.505 214.095 403.62 226.395 398.442C230.795 396.586 236.395 395.022 239.095 390.04C240.395 389.746 241.595 389.649 242.795 388.965C254.595 381.735 265.495 373.43 275.095 363.464C280.695 358.383 285.595 352.619 289.995 346.562C304.995 325.848 314.895 303.377 314.095 277.388C313.795 268.594 311.195 260.583 305.695 253.45C299.195 244.95 282.295 240.456 274.795 243.387C270.195 242.996 265.995 244.559 261.795 245.927C245.195 251.496 233.195 263.025 222.095 275.629C201.195 300.836 187.995 329.854 178.295 360.631C176.095 367.568 173.495 374.407 173.395 381.833C171.795 383.982 171.495 386.522 170.995 388.965C166.695 388.574 167.295 385.447 167.295 382.712C167.695 354.769 173.195 327.9 184.995 302.497C193.195 284.911 203.695 268.79 219.195 256.283C220.595 255.111 222.095 254.036 222.195 251.985C224.195 252.766 225.195 251.203 226.495 250.324C229.195 248.37 231.695 245.829 234.695 244.657C247.295 239.479 260.395 235.18 274.595 235.473Z" fill="#BD96C3"/>
<path d="M274.595 235.473C260.395 235.082 247.295 239.479 234.495 244.657C231.495 245.927 228.995 248.468 226.295 250.324C224.995 251.203 223.995 252.864 221.995 251.985C221.895 230.881 221.895 209.777 221.795 188.673C222.195 186.621 222.195 184.667 221.795 182.615C221.795 154.672 221.795 126.631 221.895 98.6883C236.895 85.2052 252.495 72.4062 269.195 60.9749C270.795 59.9002 272.195 57.7507 274.795 58.7277C274.795 70.7452 274.695 82.7626 274.795 94.7801C274.795 117.252 274.895 139.626 274.995 162.098C274.995 164.345 274.995 166.69 274.995 168.937C274.795 191.213 274.695 213.392 274.595 235.473Z" fill="#383637"/>
<path d="M253.795 390.04C260.395 384.177 267.095 378.315 274.595 373.625C274.495 382.028 274.495 382.028 283.295 381.93C312.795 381.735 342.295 382.516 371.695 381.051C385.795 380.367 399.795 378.804 413.495 375.384C442.595 368.154 457.895 349.004 463.795 321.257C467.195 305.233 467.995 289.112 468.195 272.796C468.195 269.474 469.095 268.497 472.595 268.497C475.995 268.497 476.695 269.474 476.695 272.698C476.595 310.411 476.595 348.222 476.695 385.936C476.695 389.16 475.895 390.04 472.595 390.04C399.695 389.942 326.695 390.04 253.795 390.04Z" fill="#383637"/>
<path d="M274.695 44.0726C257.595 53.7452 240.995 64.2972 225.195 75.9239C224.295 76.6079 223.395 77.3893 222.095 77.1939C222.095 62.2453 222.095 47.2968 221.995 32.3481C221.995 24.9227 222.695 26.3883 215.595 26.2906C202.095 26.1929 188.595 26.1927 175.195 26.3881C171.595 26.4859 170.795 25.3134 170.795 21.9915C170.795 18.6696 171.595 17.5948 175.195 17.5948C224.095 17.6926 273.095 17.6927 321.995 17.7904C323.495 17.7904 325.895 16.5202 326.095 19.6467C320.195 21.6985 314.395 23.7503 309.195 27.2676C308.695 26.8768 308.195 26.2906 307.695 26.2906C297.395 26.2906 287.195 26.2906 276.895 26.2906C274.595 26.2906 274.695 27.4631 274.695 29.0263C274.695 34.0092 274.695 39.0897 274.695 44.0726Z" fill="#383637"/>
<path d="M238.795 390.137C217.795 390.137 196.695 390.137 175.695 390.04C174.095 390.04 171.995 391.017 170.695 389.063C171.195 386.62 171.495 384.079 173.095 381.93C187.895 381.93 202.795 381.832 217.595 382.126C221.595 382.223 222.095 380.856 222.095 377.436C221.895 358.091 222.095 338.648 221.995 319.302C221.995 304.842 221.895 290.382 221.795 275.824C232.895 263.221 244.895 251.692 261.495 246.123C265.695 244.657 269.895 243.191 274.495 243.582C274.495 262.341 274.595 281.003 274.595 299.762C274.695 321.061 274.695 342.36 274.795 363.66C265.195 373.528 254.295 381.833 242.495 389.16C241.295 389.747 240.095 389.844 238.795 390.137Z" fill="#383637"/>
<path d="M584.629 24.3869C590.596 24.3869 595.668 25.2285 599.845 26.9119C604.022 28.5953 608.099 30.9718 612.077 34.0414C613.171 34.9326 614.116 35.3782 614.911 35.3782C616.9 35.3782 618.193 32.4076 618.79 26.4663H622.221C621.823 32.9027 621.624 44.2901 621.624 60.6286H618.193C617.099 54.1922 616.105 49.5878 615.21 46.8152C614.315 43.9435 612.823 41.2205 610.735 38.6459C607.751 34.7841 603.922 31.9125 599.248 30.0311C594.673 28.0506 589.701 27.0604 584.331 27.0604C577.866 27.0604 572.198 29.1894 567.324 33.4473C562.551 37.7052 558.822 43.795 556.136 51.7167C553.451 59.5394 552.109 68.7484 552.109 79.3436C552.109 90.1369 553.551 99.3954 556.435 107.119C559.319 114.843 563.297 120.734 568.369 124.794C573.54 128.755 579.358 130.736 585.822 130.736C590.795 130.736 595.618 129.795 600.292 127.913C604.966 126.032 608.646 123.21 611.331 119.447C613.32 116.675 614.762 113.704 615.657 110.535C616.552 107.367 617.398 102.515 618.193 95.9792H621.624C621.624 113.011 621.823 124.893 622.221 131.627H618.79C618.492 128.458 618.044 126.23 617.447 124.943C616.95 123.557 616.204 122.863 615.21 122.863C614.414 122.863 613.37 123.259 612.077 124.052C607.602 127.22 603.326 129.646 599.248 131.33C595.171 132.914 590.248 133.706 584.48 133.706C575.032 133.706 566.728 131.577 559.567 127.319C552.506 123.061 546.987 116.922 543.009 108.901C539.13 100.782 537.191 91.1271 537.191 79.9377C537.191 69.0454 539.18 59.3908 543.158 50.974C547.236 42.5572 552.854 36.0219 560.015 31.3679C567.275 26.7139 575.479 24.3869 584.629 24.3869ZM681.216 53.0535C685.194 53.0535 688.427 54.1922 690.913 56.4697C693.499 58.7472 694.791 61.5198 694.791 64.7875C694.791 67.3621 693.996 69.59 692.405 71.4714C690.913 73.2538 688.874 74.145 686.288 74.145C684.1 74.145 682.211 73.4519 680.62 72.0656C679.128 70.6793 678.382 68.7979 678.382 66.4213C678.382 63.1537 680.073 60.4801 683.454 58.4006C682.758 57.4104 681.714 56.9153 680.321 56.9153C676.443 56.9153 672.912 58.4501 669.73 61.5198C666.548 64.4904 664.061 68.1542 662.271 72.5112C660.481 76.8681 659.586 80.9775 659.586 84.8393V116.328C659.586 120.883 660.879 124.052 663.465 125.834C666.15 127.616 670.128 128.508 675.399 128.508V131.627L671.818 131.478C661.674 131.181 655.21 131.033 652.426 131.033C649.84 131.033 643.972 131.231 634.823 131.627V128.508C639 128.508 641.934 127.765 643.624 126.28C645.315 124.695 646.16 121.873 646.16 117.813V71.3229C646.16 66.7679 645.315 63.4507 643.624 61.3713C641.934 59.2918 639 58.2521 634.823 58.2521V55.1329C638.005 55.43 641.088 55.5785 644.072 55.5785C650.337 55.5785 655.509 54.8854 659.586 53.4991V72.0656C661.376 67.1145 664.21 62.7081 668.089 58.8462C672.067 54.9844 676.443 53.0535 681.216 53.0535ZM761.589 113.803C759.799 119.249 756.418 123.953 751.445 127.913C746.572 131.775 740.655 133.706 733.693 133.706C726.632 133.706 720.516 132.122 715.345 128.953C710.173 125.686 706.195 121.18 703.411 115.437C700.726 109.595 699.383 102.861 699.383 95.2365C699.383 86.6217 700.775 79.1456 703.56 72.8082C706.344 66.4709 710.273 61.6188 715.345 58.2521C720.417 54.7864 726.334 53.0535 733.097 53.0535C742.047 53.0535 748.909 55.7766 753.683 61.2227C758.556 66.5699 760.992 74.7391 760.992 85.7305H714.3C714.002 88.5031 713.853 91.6717 713.853 95.2365C713.853 101.772 714.897 107.466 716.986 112.318C719.174 117.17 722.008 120.933 725.489 123.606C729.069 126.181 732.798 127.468 736.677 127.468C741.45 127.468 745.677 126.329 749.357 124.052C753.036 121.774 756.119 117.962 758.606 112.615L761.589 113.803ZM732.5 55.8756C727.826 55.8756 723.798 58.1531 720.417 62.7081C717.035 67.263 714.947 73.9965 714.151 82.9084H746.671C746.87 75.1847 745.727 68.7483 743.24 63.5992C740.854 58.4501 737.273 55.8756 732.5 55.8756ZM790.807 132.667C784.541 132.667 779.867 131.132 776.784 128.062C773.801 124.893 772.309 120.536 772.309 114.991C772.309 110.535 773.502 106.871 775.889 104C778.375 101.128 781.26 98.8508 784.541 97.1674C787.923 95.4841 792.348 93.7017 797.818 91.8203C803.387 89.9389 807.514 88.206 810.2 86.6217C812.885 85.0373 814.227 82.9084 814.227 80.2348V71.0258C814.227 65.2826 812.984 61.3713 810.498 59.2918C808.111 57.1134 804.73 56.0241 800.354 56.0241C793.392 56.0241 788.47 57.8065 785.586 61.3713C787.575 61.8664 789.216 62.9061 790.508 64.4904C791.901 66.0748 792.597 68.0552 792.597 70.4317C792.597 72.9072 791.801 74.8877 790.21 76.373C788.619 77.7593 786.58 78.4524 784.094 78.4524C781.309 78.4524 779.221 77.6107 777.829 75.9274C776.436 74.145 775.74 72.016 775.74 69.5405C775.74 67.164 776.287 65.1836 777.381 63.5992C778.574 62.0149 780.315 60.4306 782.602 58.8462C784.989 57.1629 788.022 55.7766 791.702 54.6873C795.381 53.5981 799.409 53.0535 803.785 53.0535C811.542 53.0535 817.41 54.8854 821.388 58.5492C823.874 60.8267 825.515 63.5993 826.31 66.867C827.206 70.0356 827.653 74.244 827.653 79.4921V120.784C827.653 123.26 828.001 125.042 828.697 126.131C829.393 127.22 830.587 127.765 832.277 127.765C833.471 127.765 834.565 127.517 835.559 127.022C836.653 126.428 837.797 125.636 838.99 124.646L840.631 127.171C838.046 129.151 835.808 130.587 833.918 131.478C832.128 132.27 829.841 132.667 827.056 132.667C822.283 132.667 818.951 131.478 817.062 129.102C815.172 126.725 814.227 123.507 814.227 119.447C811.244 124.398 807.813 127.864 803.934 129.844C800.056 131.726 795.68 132.667 790.807 132.667ZM797.37 126.725C803.934 126.725 809.553 122.962 814.227 115.437V86.3246C813.332 87.7109 812.089 88.8496 810.498 89.7408C808.907 90.632 806.47 91.8203 803.188 93.3056C799.409 94.8899 796.326 96.4248 793.939 97.9101C791.652 99.2964 789.663 101.227 787.972 103.703C786.282 106.178 785.436 109.347 785.436 113.209C785.436 117.665 786.53 121.032 788.718 123.309C790.906 125.587 793.79 126.725 797.37 126.725ZM867.639 55.2815H889.715V58.2521H867.639V115.734C867.639 120.19 868.435 123.408 870.026 125.388C871.716 127.369 874.103 128.359 877.186 128.359C880.268 128.359 882.907 127.121 885.095 124.646C887.283 122.17 889.119 118.11 890.61 112.466L893.594 113.209C891.108 126.874 884.643 133.706 874.203 133.706C870.821 133.706 868.037 133.31 865.849 132.518C863.661 131.726 861.722 130.488 860.031 128.805C857.843 126.626 856.302 123.953 855.407 120.784C854.611 117.615 854.213 113.357 854.213 108.01V58.2521H839.892V55.2815H854.213V32.5561C859.782 32.3581 864.258 31.6649 867.639 30.4767V55.2815ZM911.87 18C914.456 18 916.697 18.9407 918.587 20.8221C920.476 22.7035 921.417 24.9315 921.417 27.506C921.417 30.0806 920.476 32.3086 918.587 34.19C916.697 36.0714 914.456 37.0121 911.87 37.0121C909.284 37.0121 907.05 36.0714 905.161 34.19C903.271 32.3086 902.323 30.0806 902.323 27.506C902.323 24.9315 903.271 22.7035 905.161 20.8221C907.05 18.9407 909.284 18 911.87 18ZM919.627 117.813C919.627 121.873 920.476 124.695 922.167 126.28C923.857 127.765 926.787 128.508 930.964 128.508V131.627C921.815 131.231 915.802 131.033 912.918 131.033C910.034 131.033 904.013 131.231 894.864 131.627V128.508C899.041 128.508 901.978 127.765 903.669 126.28C905.36 124.695 906.201 121.873 906.201 117.813V71.3229C906.201 66.7679 905.36 63.4507 903.669 61.3713C901.978 59.2918 899.041 58.2521 894.864 58.2521V55.1329C898.046 55.43 901.129 55.5785 904.113 55.5785C910.378 55.5785 915.549 54.8854 919.627 53.4991V117.813ZM993.916 55.5785C998.292 55.5785 1002.07 55.43 1005.25 55.1329V58.1036C1003.26 58.3016 1001.47 59.1928 999.883 60.7771C998.392 62.3615 996.946 64.936 995.553 68.5008L971.089 132.369H968.556L941.108 66.5699C939.616 63.2032 938.171 60.9752 936.778 59.886C935.386 58.7967 933.948 58.2521 932.456 58.2521V55.1329C937.627 55.529 942.003 55.7271 945.583 55.7271C953.241 55.7271 959.705 55.529 964.976 55.1329V58.2521C961.297 58.2521 958.611 58.5492 956.921 59.1433C955.23 59.6384 954.381 61.0247 954.381 63.3022C954.381 64.6885 954.932 66.8669 956.026 69.8376L974.37 114.991L990.78 72.0656C991.874 69.0949 992.425 66.7679 992.425 65.0846C992.425 62.8071 991.529 61.1732 989.739 60.183C988.049 59.0938 985.264 58.4006 981.385 58.1036V55.1329C986.557 55.43 990.734 55.5785 993.916 55.5785ZM1072 113.803C1070.21 119.249 1066.83 123.953 1061.86 127.913C1056.98 131.775 1051.07 133.706 1044.11 133.706C1037.05 133.706 1030.93 132.122 1025.76 128.953C1020.58 125.686 1016.61 121.18 1013.82 115.437C1011.14 109.595 1009.8 102.861 1009.8 95.2365C1009.8 86.6217 1011.19 79.1456 1013.97 72.8082C1016.76 66.4709 1020.68 61.6188 1025.76 58.2521C1030.83 54.7864 1036.75 53.0535 1043.51 53.0535C1052.46 53.0535 1059.32 55.7766 1064.1 61.2227C1068.97 66.5699 1071.4 74.7391 1071.4 85.7305H1024.72C1024.42 88.5031 1024.26 91.6717 1024.26 95.2365C1024.26 101.772 1025.31 107.466 1027.4 112.318C1029.59 117.17 1032.42 120.933 1035.9 123.606C1039.48 126.181 1043.21 127.468 1047.09 127.468C1051.87 127.468 1056.09 126.329 1059.77 124.052C1063.45 121.774 1066.53 117.962 1069.02 112.615L1072 113.803ZM1042.91 55.8756C1038.24 55.8756 1034.21 58.1531 1030.83 62.7081C1027.45 67.263 1025.36 73.9965 1024.56 82.9084H1057.08C1057.28 75.1847 1056.14 68.7483 1053.66 63.5992C1051.27 58.4501 1047.69 55.8756 1042.91 55.8756ZM576.771 194.245C572.934 194.457 570.109 194.882 568.297 195.518C566.592 196.155 565.419 197.375 564.779 199.18C564.14 200.984 563.82 203.902 563.82 207.936V286.897C563.82 290.93 564.14 293.848 564.779 295.652C565.419 297.457 566.592 298.677 568.297 299.314C570.109 299.845 572.934 300.11 576.771 300.11H588.442C595.051 300.11 600.06 299.208 603.472 297.403C606.989 295.493 609.547 292.468 611.146 288.329C612.745 284.19 613.918 278.194 614.664 270.34H618.341C618.021 273.63 617.861 277.982 617.861 283.394C617.861 289.444 618.235 296.236 618.981 303.771C611.732 303.453 599.528 303.294 582.367 303.294C561.901 303.294 546.446 303.453 536 303.771V300.587C539.837 300.375 542.609 299.951 544.314 299.314C546.126 298.677 547.352 297.457 547.991 295.652C548.631 293.848 548.951 290.93 548.951 286.897V207.936C548.951 203.902 548.631 200.984 547.991 199.18C547.352 197.375 546.126 196.155 544.314 195.518C542.609 194.882 539.837 194.457 536 194.245V191.061C540.477 191.379 547.298 191.538 556.465 191.538C564.993 191.538 571.761 191.379 576.771 191.061V194.245ZM646.143 181.987C648.915 181.987 651.313 182.995 653.338 185.011C655.363 187.028 656.376 189.416 656.376 192.175C656.376 194.935 655.363 197.323 653.338 199.339C651.313 201.355 648.915 202.364 646.143 202.364C643.372 202.364 640.974 201.355 638.949 199.339C636.924 197.323 635.911 194.935 635.911 192.175C635.911 189.416 636.924 187.028 638.949 185.011C640.974 182.995 643.372 181.987 646.143 181.987ZM654.457 288.966C654.457 293.318 655.363 296.342 657.175 298.04C658.988 299.632 662.132 300.428 666.609 300.428V303.771C656.802 303.347 650.354 303.134 647.263 303.134C644.171 303.134 637.723 303.347 627.916 303.771V300.428C632.393 300.428 635.537 299.632 637.35 298.04C639.162 296.342 640.068 293.318 640.068 288.966V239.138C640.068 234.256 639.162 230.701 637.35 228.472C635.537 226.243 632.393 225.129 627.916 225.129V221.786C631.328 222.104 634.632 222.263 637.829 222.263C644.545 222.263 650.087 221.52 654.457 220.034V288.966ZM714.73 219.557C721.871 219.557 728.053 221.255 733.276 224.651C738.286 227.941 740.791 232.027 740.791 236.909C740.791 239.669 739.992 241.844 738.393 243.436C736.794 245.028 734.768 245.824 732.317 245.824C729.865 245.824 727.787 245.134 726.081 243.755C724.376 242.268 723.523 240.306 723.523 237.864C723.523 235.636 724.163 233.779 725.442 232.292C726.721 230.701 728.32 229.639 730.239 229.109C729.172 227.198 727.253 225.606 724.483 224.333C721.817 223.059 718.939 222.422 715.849 222.422C711.904 222.422 708.227 223.696 704.817 226.243C701.406 228.684 698.581 232.823 696.343 238.66C694.104 244.391 692.985 251.979 692.985 261.425C692.985 274.585 695.117 284.19 699.381 290.24C703.644 296.183 709.186 299.155 716.009 299.155C720.592 299.155 724.909 297.828 728.959 295.175C733.116 292.522 736.527 288.383 739.192 282.757L742.23 283.872C740.418 289.921 737.006 295.121 731.997 299.473C727.094 303.825 720.698 306 712.811 306C706.202 306 700.18 304.302 694.744 300.906C689.414 297.509 685.204 292.628 682.113 286.26C679.022 279.786 677.476 272.304 677.476 263.813C677.476 255.217 679.022 247.575 682.113 240.889C685.311 234.203 689.734 229.003 695.384 225.288C701.032 221.467 707.481 219.557 714.73 219.557ZM821.905 284.668C819.986 290.505 816.362 295.546 811.033 299.791C805.81 303.93 799.468 306 792.006 306C784.439 306 777.884 304.302 772.34 300.906C766.798 297.403 762.535 292.574 759.55 286.419C756.672 280.157 755.233 272.941 755.233 264.768C755.233 255.535 756.725 247.522 759.709 240.73C762.694 233.938 766.904 228.737 772.34 225.129C777.776 221.414 784.119 219.557 791.367 219.557C800.96 219.557 808.315 222.476 813.431 228.313C818.654 234.044 821.265 242.799 821.265 254.58H771.221C770.901 257.551 770.742 260.948 770.742 264.768C770.742 271.773 771.861 277.876 774.099 283.076C776.445 288.276 779.482 292.309 783.213 295.175C787.05 297.934 791.047 299.314 795.204 299.314C800.32 299.314 804.851 298.094 808.794 295.652C812.739 293.211 816.043 289.125 818.707 283.394L821.905 284.668ZM790.727 222.582C785.718 222.582 781.401 225.023 777.776 229.905C774.153 234.786 771.914 242.003 771.061 251.555H805.916C806.13 243.277 804.904 236.378 802.239 230.86C799.681 225.341 795.844 222.582 790.727 222.582ZM887.114 219.557C894.581 219.557 900.227 221.573 904.067 225.606C906.086 227.729 907.525 230.382 908.381 233.566C909.231 236.75 909.659 241.048 909.659 246.461V288.966C909.659 293.318 910.569 296.342 912.375 298.04C914.188 299.632 917.332 300.428 921.807 300.428V303.771C912.007 303.347 905.612 303.134 902.621 303.134C899.637 303.134 893.67 303.347 884.72 303.771V300.428C888.66 300.428 891.383 299.632 892.875 298.04C894.474 296.342 895.269 293.318 895.269 288.966V242.959C895.269 237.015 894.42 232.505 892.714 229.427C891.008 226.243 887.543 224.651 882.318 224.651C877.949 224.651 874.058 225.925 870.648 228.472C867.237 231.019 864.572 234.521 862.653 238.979C860.841 243.33 859.935 248.212 859.935 253.625V288.966C859.935 293.318 860.681 296.342 862.174 298.04C863.773 299.632 866.543 300.428 870.488 300.428V303.771C861.534 303.347 855.565 303.134 852.581 303.134C849.596 303.134 843.2 303.347 833.394 303.771V300.428C837.871 300.428 841.015 299.632 842.828 298.04C844.639 296.342 845.546 293.318 845.546 288.966V239.138C845.546 234.256 844.639 230.701 842.828 228.472C841.015 226.243 837.871 225.129 833.394 225.129V221.786C836.805 222.104 840.11 222.263 843.307 222.263C850.022 222.263 855.565 221.52 859.935 220.034V238.819C862.6 232.027 866.277 227.145 870.967 224.173C875.764 221.095 881.147 219.557 887.114 219.557ZM957.41 219.557C961.251 219.557 964.663 220.14 967.646 221.308C970.63 222.476 973.032 223.855 974.845 225.447C976.015 226.296 976.971 226.721 977.721 226.721C979.641 226.721 980.812 224.386 981.24 219.716H984.912C984.491 224.916 984.277 233.938 984.277 246.779H980.598C979.427 239.775 977.132 233.99 973.72 229.427C970.415 224.864 965.458 222.582 958.856 222.582C955.016 222.582 951.872 223.696 949.416 225.925C946.968 228.048 945.744 231.019 945.744 234.84C945.744 238.554 947.022 241.685 949.577 244.232C952.14 246.673 956.24 249.645 961.893 253.147C962.85 253.678 964.288 254.58 966.208 255.853C971.112 259.037 975.051 261.85 978.042 264.291C981.026 266.732 983.42 269.544 985.233 272.728C987.154 275.912 988.11 279.574 988.11 283.713C988.11 290.717 985.448 296.183 980.116 300.11C974.898 304.036 968.449 306 960.769 306C955.972 306 951.765 305.257 948.139 303.771C945.798 302.604 943.61 301.171 941.582 299.473C941.162 299.049 940.68 298.836 940.144 298.836C939.402 298.836 938.706 299.367 938.071 300.428C937.536 301.489 937.107 302.975 936.786 304.886H933.114C933.535 298.836 933.749 288.223 933.749 273.047H937.429C938.599 283.023 940.733 290.505 943.824 295.493C946.915 300.375 952.193 302.816 959.652 302.816C963.385 302.816 966.69 301.596 969.566 299.155C972.443 296.713 973.881 292.893 973.881 287.693C973.881 283.553 972.443 280.051 969.566 277.186C966.797 274.32 962.207 270.871 955.812 266.838C950.594 263.548 946.54 260.842 943.663 258.719C940.894 256.596 938.545 253.996 936.625 250.918C934.713 247.84 933.749 244.232 933.749 240.093C933.749 233.407 935.99 228.313 940.466 224.81C944.941 221.308 950.594 219.557 957.41 219.557ZM1069.7 284.668C1067.78 290.505 1064.15 295.546 1058.83 299.791C1053.6 303.93 1047.26 306 1039.8 306C1032.23 306 1025.67 304.302 1020.13 300.906C1014.59 297.403 1010.33 292.574 1007.34 286.419C1004.47 280.157 1003.03 272.941 1003.03 264.768C1003.03 255.535 1004.52 247.522 1007.5 240.73C1010.49 233.938 1014.69 228.737 1020.13 225.129C1025.56 221.414 1031.91 219.557 1039.16 219.557C1048.75 219.557 1056.1 222.476 1061.22 228.313C1066.45 234.044 1069.05 242.799 1069.05 254.58H1019.02C1018.69 257.551 1018.53 260.948 1018.53 264.768C1018.53 271.773 1019.65 277.876 1021.89 283.076C1024.23 288.276 1027.27 292.309 1031 295.175C1034.84 297.934 1038.84 299.314 1043 299.314C1048.11 299.314 1052.65 298.094 1056.59 295.652C1060.53 293.211 1063.84 289.125 1066.5 283.394L1069.7 284.668ZM1038.52 222.582C1033.51 222.582 1029.19 225.023 1025.56 229.905C1021.95 234.786 1019.7 242.003 1018.86 251.555H1053.71C1053.92 243.277 1052.69 236.378 1050.03 230.86C1047.47 225.341 1043.63 222.582 1038.52 222.582Z" fill="#383637"/>
</svg>
