<svg width="1280" height="421" viewBox="0 0 1280 421" fill="none" xmlns="http://www.w3.org/2000/svg">
<path d="M274.595 235.473C286.695 236.547 298.395 238.404 307.595 247.197C314.895 254.232 318.695 262.927 319.895 272.698C320.895 280.905 319.795 288.819 318.595 297.026C314.295 326.239 297.495 348.222 277.895 368.838C276.495 370.303 274.795 371.378 274.595 373.528C266.995 378.218 260.395 384.08 253.795 389.942C251.895 390.137 250.395 391.212 248.895 392.189C228.795 405.379 206.995 414.758 182.995 418.569C162.295 421.891 141.895 421.207 122.395 412.609C100.295 402.839 86.3948 385.936 78.2948 364.05C69.2948 339.918 69.1949 315.003 72.5949 289.991C75.1949 270.45 81.195 251.691 88.495 233.323C88.895 232.444 88.8948 231.369 89.2948 230.49C90.6948 227.363 90.0949 226.386 86.3949 227.266C68.1949 231.565 49.8949 235.863 31.5949 239.869C23.6949 241.628 15.9948 244.266 7.79482 244.559C7.49482 244.559 7.09482 244.461 6.79482 244.657C4.49482 246.318 1.59482 247.881 0.294818 244.364C-1.10518 240.553 2.79492 240.065 5.39492 239.381C22.6949 235.473 39.9948 231.662 57.2948 227.656C68.7948 225.018 80.195 222.381 91.695 219.743C93.695 219.254 94.595 217.984 95.495 216.323C104.895 199.616 115.295 183.592 127.495 168.741C143.595 149.298 159.795 129.953 179.495 113.637C185.695 108.458 191.395 102.303 197.895 97.418C204.795 92.2397 211.295 86.3774 218.195 81.1991C219.695 80.0267 221.795 79.3428 222.195 77.0956C223.495 77.291 224.395 76.5094 225.295 75.8254C241.095 64.1987 257.695 53.6467 274.795 43.974C285.995 37.9164 297.395 32.152 309.195 27.1691C314.295 23.5541 320.195 21.6 326.095 19.5482C353.995 8.50774 382.395 -0.285566 412.995 0.984577C424.495 1.47309 434.295 5.67434 441.595 14.663C446.995 21.3069 447.795 28.9279 446.795 36.8419C444.695 52.1813 437.195 65.0781 427.095 76.6071C405.095 101.815 377.095 119.303 347.995 135.229C324.495 148.126 299.995 159.166 274.995 169.034C274.995 166.787 274.995 164.442 274.995 162.195C275.295 162.195 275.695 162.195 275.995 162.098C302.495 150.666 329.195 139.43 354.195 124.97C376.095 112.367 397.095 98.7857 414.895 80.906C426.595 69.0839 436.195 55.894 439.495 39.2845C441.095 30.882 441.395 22.6749 433.995 16.3242C427.895 11.0482 420.495 8.50783 412.595 7.92161C397.895 6.84687 383.395 8.8986 369.195 12.5136C336.095 21.0138 306.495 36.5486 278.095 54.7214C276.495 55.6985 274.995 56.6756 274.895 58.7274C272.295 57.7503 270.995 59.8998 269.295 60.9746C252.595 72.4059 236.995 85.2049 221.995 98.6879C187.695 130.051 158.695 165.224 138.495 208.507C152.295 204.403 164.695 200.788 176.995 196.978C191.995 192.288 206.995 187.5 221.895 182.713C222.295 184.765 222.395 186.719 221.895 188.771C220.795 189.259 219.795 189.747 218.695 190.041C191.895 199.127 164.895 207.627 137.595 215.151C134.595 215.932 132.895 217.398 131.895 220.329C128.195 231.271 124.095 242.019 120.695 253.059C110.495 285.985 103.995 319.497 105.295 354.084C105.795 367.079 108.295 379.781 115.595 391.114C122.395 401.666 131.795 408.505 144.195 411.534C158.895 415.052 173.595 413.39 188.195 410.85C201.495 408.505 214.095 403.62 226.395 398.442C230.795 396.586 236.395 395.022 239.095 390.04C240.395 389.746 241.595 389.649 242.795 388.965C254.595 381.735 265.495 373.43 275.095 363.464C280.695 358.383 285.595 352.619 289.995 346.562C304.995 325.848 314.895 303.377 314.095 277.388C313.795 268.594 311.195 260.583 305.695 253.45C299.195 244.95 282.295 240.456 274.795 243.387C270.195 242.996 265.995 244.559 261.795 245.927C245.195 251.496 233.195 263.025 222.095 275.629C201.195 300.836 187.995 329.854 178.295 360.631C176.095 367.568 173.495 374.407 173.395 381.833C171.795 383.982 171.495 386.522 170.995 388.965C166.695 388.574 167.295 385.447 167.295 382.712C167.695 354.769 173.195 327.9 184.995 302.497C193.195 284.911 203.695 268.79 219.195 256.283C220.595 255.111 222.095 254.036 222.195 251.985C224.195 252.766 225.195 251.203 226.495 250.324C229.195 248.37 231.695 245.829 234.695 244.657C247.295 239.479 260.395 235.18 274.595 235.473Z" fill="#BD96C3"/>
<path d="M274.595 235.473C260.395 235.082 247.295 239.479 234.495 244.657C231.495 245.927 228.995 248.468 226.295 250.324C224.995 251.203 223.995 252.864 221.995 251.985C221.895 230.881 221.895 209.777 221.795 188.673C222.195 186.621 222.195 184.667 221.795 182.615C221.795 154.672 221.795 126.631 221.895 98.6881C236.895 85.205 252.495 72.406 269.195 60.9747C270.795 59.9 272.195 57.7505 274.795 58.7275C274.795 70.745 274.695 82.7624 274.795 94.7799C274.795 117.252 274.895 139.626 274.995 162.098C274.995 164.345 274.995 166.69 274.995 168.937C274.795 191.213 274.695 213.392 274.595 235.473Z" fill="#383637"/>
<path d="M253.795 390.04C260.395 384.177 267.095 378.315 274.595 373.625C274.495 382.028 274.495 382.028 283.295 381.93C312.795 381.735 342.295 382.516 371.695 381.051C385.795 380.367 399.795 378.804 413.495 375.384C442.595 368.154 457.895 349.004 463.795 321.257C467.195 305.233 467.995 289.112 468.195 272.796C468.195 269.474 469.095 268.497 472.595 268.497C475.995 268.497 476.695 269.474 476.695 272.698C476.595 310.411 476.595 348.222 476.695 385.936C476.695 389.16 475.895 390.04 472.595 390.04C399.695 389.942 326.695 390.04 253.795 390.04Z" fill="#383637"/>
<path d="M274.695 44.0721C257.595 53.7447 240.995 64.2967 225.195 75.9234C224.295 76.6074 223.395 77.3888 222.095 77.1934C222.095 62.2448 222.095 47.2963 221.995 32.3476C221.995 24.9222 222.695 26.3878 215.595 26.2901C202.095 26.1924 188.595 26.1922 175.195 26.3876C171.595 26.4854 170.795 25.3129 170.795 21.991C170.795 18.6691 171.595 17.5943 175.195 17.5943C224.095 17.6921 273.095 17.6922 321.995 17.7899C323.495 17.7899 325.895 16.5197 326.095 19.6462C320.195 21.698 314.395 23.7498 309.195 27.2671C308.695 26.8763 308.195 26.2901 307.695 26.2901C297.395 26.2901 287.195 26.2901 276.895 26.2901C274.595 26.2901 274.695 27.4626 274.695 29.0258C274.695 34.0087 274.695 39.0892 274.695 44.0721Z" fill="#383637"/>
<path d="M238.795 390.137C217.795 390.137 196.695 390.137 175.695 390.04C174.095 390.04 171.995 391.017 170.695 389.063C171.195 386.62 171.495 384.079 173.095 381.93C187.895 381.93 202.795 381.832 217.595 382.126C221.595 382.223 222.095 380.856 222.095 377.436C221.895 358.091 222.095 338.648 221.995 319.302C221.995 304.842 221.895 290.382 221.795 275.824C232.895 263.221 244.895 251.692 261.495 246.123C265.695 244.657 269.895 243.191 274.495 243.582C274.495 262.341 274.595 281.003 274.595 299.762C274.695 321.061 274.695 342.36 274.795 363.66C265.195 373.528 254.295 381.833 242.495 389.16C241.295 389.747 240.095 389.844 238.795 390.137Z" fill="#383637"/>
<path d="M616.345 19.21C624.145 19.21 630.775 20.315 636.235 22.525C641.695 24.735 647.025 27.855 652.225 31.885C653.655 33.055 654.89 33.64 655.93 33.64C658.53 33.64 660.22 29.74 661 21.94H665.485C664.965 30.39 664.705 45.34 664.705 66.79H660.22C658.79 58.34 657.49 52.295 656.32 48.655C655.15 44.885 653.2 41.31 650.47 37.93C646.57 32.86 641.565 29.09 635.455 26.62C629.475 24.02 622.975 22.72 615.955 22.72C607.505 22.72 600.095 25.515 593.725 31.105C587.485 36.695 582.61 44.69 579.1 55.09C575.59 65.36 573.835 77.45 573.835 91.36C573.835 105.53 575.72 117.685 579.49 127.825C583.26 137.965 588.46 145.7 595.09 151.03C601.85 156.23 609.455 158.83 617.905 158.83C624.405 158.83 630.71 157.595 636.82 155.125C642.93 152.655 647.74 148.95 651.25 144.01C653.85 140.37 655.735 136.47 656.905 132.31C658.075 128.15 659.18 121.78 660.22 113.2H664.705C664.705 135.56 664.965 151.16 665.485 160H661C660.61 155.84 660.025 152.915 659.245 151.225C658.595 149.405 657.62 148.495 656.32 148.495C655.28 148.495 653.915 149.015 652.225 150.055C646.375 154.215 640.785 157.4 635.455 159.61C630.125 161.69 623.69 162.73 616.15 162.73C603.8 162.73 592.945 159.935 583.585 154.345C574.355 148.755 567.14 140.695 561.94 130.165C556.87 119.505 554.335 106.83 554.335 92.14C554.335 77.84 556.935 65.165 562.135 54.115C567.465 43.065 574.81 34.485 584.17 28.375C593.66 22.265 604.385 19.21 616.345 19.21ZM742.603 56.845C747.803 56.845 752.028 58.34 755.278 61.33C758.658 64.32 760.348 67.96 760.348 72.25C760.348 75.63 759.308 78.555 757.228 81.025C755.278 83.365 752.613 84.535 749.233 84.535C746.373 84.535 743.903 83.625 741.823 81.805C739.873 79.985 738.898 77.515 738.898 74.395C738.898 70.105 741.108 66.595 745.528 63.865C744.618 62.565 743.253 61.915 741.433 61.915C736.363 61.915 731.748 63.93 727.588 67.96C723.428 71.86 720.178 76.67 717.838 82.39C715.498 88.11 714.328 93.505 714.328 98.575V139.915C714.328 145.895 716.018 150.055 719.398 152.395C722.908 154.735 728.108 155.905 734.998 155.905V160L730.318 159.805C717.058 159.415 708.608 159.22 704.968 159.22C701.588 159.22 693.918 159.48 681.958 160V155.905C687.418 155.905 691.253 154.93 693.463 152.98C695.673 150.9 696.778 147.195 696.778 141.865V80.83C696.778 74.85 695.673 70.495 693.463 67.765C691.253 65.035 687.418 63.67 681.958 63.67V59.575C686.118 59.965 690.148 60.16 694.048 60.16C702.238 60.16 708.998 59.25 714.328 57.43V81.805C716.668 75.305 720.373 69.52 725.443 64.45C730.643 59.38 736.363 56.845 742.603 56.845ZM847.665 136.6C845.325 143.75 840.905 149.925 834.405 155.125C828.035 160.195 820.3 162.73 811.2 162.73C801.97 162.73 793.975 160.65 787.215 156.49C780.455 152.2 775.255 146.285 771.615 138.745C768.105 131.075 766.35 122.235 766.35 112.225C766.35 100.915 768.17 91.1 771.81 82.78C775.45 74.46 780.585 68.09 787.215 63.67C793.845 59.12 801.58 56.845 810.42 56.845C822.12 56.845 831.09 60.42 837.33 67.57C843.7 74.59 846.885 85.315 846.885 99.745H785.85C785.46 103.385 785.265 107.545 785.265 112.225C785.265 120.805 786.63 128.28 789.36 134.65C792.22 141.02 795.925 145.96 800.475 149.47C805.155 152.85 810.03 154.54 815.1 154.54C821.34 154.54 826.865 153.045 831.675 150.055C836.485 147.065 840.515 142.06 843.765 135.04L847.665 136.6ZM809.64 60.55C803.53 60.55 798.265 63.54 793.845 69.52C789.425 75.5 786.695 84.34 785.655 96.04H828.165C828.425 85.9 826.93 77.45 823.68 70.69C820.56 63.93 815.88 60.55 809.64 60.55ZM885.858 161.365C877.668 161.365 871.558 159.35 867.528 155.32C863.628 151.16 861.678 145.44 861.678 138.16C861.678 132.31 863.238 127.5 866.358 123.73C869.608 119.96 873.378 116.97 877.668 114.76C882.088 112.55 887.873 110.21 895.023 107.74C902.303 105.27 907.698 102.995 911.208 100.915C914.718 98.835 916.473 96.04 916.473 92.53V80.44C916.473 72.9 914.848 67.765 911.598 65.035C908.478 62.175 904.058 60.745 898.338 60.745C889.238 60.745 882.803 63.085 879.033 67.765C881.633 68.415 883.778 69.78 885.468 71.86C887.288 73.94 888.198 76.54 888.198 79.66C888.198 82.91 887.158 85.51 885.078 87.46C882.998 89.28 880.333 90.19 877.083 90.19C873.443 90.19 870.713 89.085 868.893 86.875C867.073 84.535 866.163 81.74 866.163 78.49C866.163 75.37 866.878 72.77 868.308 70.69C869.868 68.61 872.143 66.53 875.133 64.45C878.253 62.24 882.218 60.42 887.028 58.99C891.838 57.56 897.103 56.845 902.823 56.845C912.963 56.845 920.633 59.25 925.833 64.06C929.083 67.05 931.228 70.69 932.268 74.98C933.438 79.14 934.023 84.665 934.023 91.555V145.765C934.023 149.015 934.478 151.355 935.388 152.785C936.298 154.215 937.858 154.93 940.068 154.93C941.628 154.93 943.058 154.605 944.358 153.955C945.788 153.175 947.283 152.135 948.843 150.835L950.988 154.15C947.608 156.75 944.683 158.635 942.213 159.805C939.873 160.845 936.883 161.365 933.243 161.365C927.003 161.365 922.648 159.805 920.178 156.685C917.708 153.565 916.473 149.34 916.473 144.01C912.573 150.51 908.088 155.06 903.018 157.66C897.948 160.13 892.228 161.365 885.858 161.365ZM894.438 153.565C903.018 153.565 910.363 148.625 916.473 138.745V100.525C915.303 102.345 913.678 103.84 911.598 105.01C909.518 106.18 906.333 107.74 902.043 109.69C897.103 111.77 893.073 113.785 889.953 115.735C886.963 117.555 884.363 120.09 882.153 123.34C879.943 126.59 878.838 130.75 878.838 135.82C878.838 141.67 880.268 146.09 883.128 149.08C885.988 152.07 889.758 153.565 894.438 153.565ZM986.292 59.77H1015.15V63.67H986.292V139.135C986.292 144.985 987.332 149.21 989.412 151.81C991.622 154.41 994.742 155.71 998.772 155.71C1002.8 155.71 1006.25 154.085 1009.11 150.835C1011.97 147.585 1014.37 142.255 1016.32 134.845L1020.22 135.82C1016.97 153.76 1008.52 162.73 994.872 162.73C990.452 162.73 986.812 162.21 983.952 161.17C981.092 160.13 978.557 158.505 976.347 156.295C973.487 153.435 971.472 149.925 970.302 145.765C969.262 141.605 968.742 136.015 968.742 128.995V63.67H950.022V59.77H968.742V29.935C976.022 29.675 981.872 28.765 986.292 27.205V59.77ZM1044.11 10.825C1047.49 10.825 1050.42 12.06 1052.89 14.53C1055.36 17 1056.59 19.925 1056.59 23.305C1056.59 26.685 1055.36 29.61 1052.89 32.08C1050.42 34.55 1047.49 35.785 1044.11 35.785C1040.73 35.785 1037.81 34.55 1035.34 32.08C1032.87 29.61 1031.63 26.685 1031.63 23.305C1031.63 19.925 1032.87 17 1035.34 14.53C1037.81 12.06 1040.73 10.825 1044.11 10.825ZM1054.25 141.865C1054.25 147.195 1055.36 150.9 1057.57 152.98C1059.78 154.93 1063.61 155.905 1069.07 155.905V160C1057.11 159.48 1049.25 159.22 1045.48 159.22C1041.71 159.22 1033.84 159.48 1021.88 160V155.905C1027.34 155.905 1031.18 154.93 1033.39 152.98C1035.6 150.9 1036.7 147.195 1036.7 141.865V80.83C1036.7 74.85 1035.6 70.495 1033.39 67.765C1031.18 65.035 1027.34 63.67 1021.88 63.67V59.575C1026.04 59.965 1030.07 60.16 1033.97 60.16C1042.16 60.16 1048.92 59.25 1054.25 57.43V141.865ZM1151.36 60.16C1157.08 60.16 1162.02 59.965 1166.18 59.575V63.475C1163.58 63.735 1161.24 64.905 1159.16 66.985C1157.21 69.065 1155.32 72.445 1153.5 77.125L1121.52 160.975H1118.21L1082.33 74.59C1080.38 70.17 1078.49 67.245 1076.67 65.815C1074.85 64.385 1072.97 63.67 1071.02 63.67V59.575C1077.78 60.095 1083.5 60.355 1088.18 60.355C1098.19 60.355 1106.64 60.095 1113.53 59.575V63.67C1108.72 63.67 1105.21 64.06 1103 64.84C1100.79 65.49 1099.68 67.31 1099.68 70.3C1099.68 72.12 1100.4 74.98 1101.83 78.88L1125.81 138.16L1147.26 81.805C1148.69 77.905 1149.41 74.85 1149.41 72.64C1149.41 69.65 1148.24 67.505 1145.9 66.205C1143.69 64.775 1140.05 63.865 1134.98 63.475V59.575C1141.74 59.965 1147.2 60.16 1151.36 60.16ZM1253.43 136.6C1251.09 143.75 1246.67 149.925 1240.17 155.125C1233.8 160.195 1226.07 162.73 1216.97 162.73C1207.74 162.73 1199.74 160.65 1192.98 156.49C1186.22 152.2 1181.02 146.285 1177.38 138.745C1173.87 131.075 1172.12 122.235 1172.12 112.225C1172.12 100.915 1173.94 91.1 1177.58 82.78C1181.22 74.46 1186.35 68.09 1192.98 63.67C1199.61 59.12 1207.35 56.845 1216.19 56.845C1227.89 56.845 1236.86 60.42 1243.1 67.57C1249.47 74.59 1252.65 85.315 1252.65 99.745H1191.62C1191.23 103.385 1191.03 107.545 1191.03 112.225C1191.03 120.805 1192.4 128.28 1195.13 134.65C1197.99 141.02 1201.69 145.96 1206.24 149.47C1210.92 152.85 1215.8 154.54 1220.87 154.54C1227.11 154.54 1232.63 153.045 1237.44 150.055C1242.25 147.065 1246.28 142.06 1249.53 135.04L1253.43 136.6ZM1215.41 60.55C1209.3 60.55 1204.03 63.54 1199.61 69.52C1195.19 75.5 1192.46 84.34 1191.42 96.04H1233.93C1234.19 85.9 1232.7 77.45 1229.45 70.69C1226.33 63.93 1221.65 60.55 1215.41 60.55ZM606.073 242.208C601.057 242.487 597.365 243.044 594.996 243.88C592.767 244.716 591.234 246.318 590.398 248.687C589.562 251.056 589.144 254.887 589.144 260.182V363.846C589.144 369.141 589.562 372.972 590.398 375.341C591.234 377.71 592.767 379.312 594.996 380.148C597.365 380.845 601.057 381.193 606.073 381.193H621.33C629.969 381.193 636.517 380.009 640.976 377.64C645.574 375.132 648.918 371.161 651.008 365.727C653.098 360.293 654.631 352.421 655.606 342.11H660.413C659.995 346.429 659.786 352.142 659.786 359.248C659.786 367.19 660.274 376.107 661.249 386C651.774 385.582 635.821 385.373 613.388 385.373C586.636 385.373 566.433 385.582 552.778 386V381.82C557.794 381.541 561.417 380.984 563.646 380.148C566.015 379.312 567.617 377.71 568.453 375.341C569.289 372.972 569.707 369.141 569.707 363.846V260.182C569.707 254.887 569.289 251.056 568.453 248.687C567.617 246.318 566.015 244.716 563.646 243.88C561.417 243.044 557.794 242.487 552.778 242.208V238.028C558.63 238.446 567.547 238.655 579.53 238.655C590.677 238.655 599.524 238.446 606.073 238.028V242.208ZM696.756 226.115C700.379 226.115 703.514 227.439 706.161 230.086C708.808 232.733 710.132 235.868 710.132 239.491C710.132 243.114 708.808 246.249 706.161 248.896C703.514 251.543 700.379 252.867 696.756 252.867C693.133 252.867 689.998 251.543 687.351 248.896C684.704 246.249 683.38 243.114 683.38 239.491C683.38 235.868 684.704 232.733 687.351 230.086C689.998 227.439 693.133 226.115 696.756 226.115ZM707.624 366.563C707.624 372.276 708.808 376.247 711.177 378.476C713.546 380.566 717.656 381.611 723.508 381.611V386C710.689 385.443 702.26 385.164 698.219 385.164C694.178 385.164 685.749 385.443 672.93 386V381.611C678.782 381.611 682.892 380.566 685.261 378.476C687.63 376.247 688.814 372.276 688.814 366.563V301.146C688.814 294.737 687.63 290.069 685.261 287.143C682.892 284.217 678.782 282.754 672.93 282.754V278.365C677.389 278.783 681.708 278.992 685.888 278.992C694.666 278.992 701.911 278.017 707.624 276.066V366.563ZM786.411 275.439C795.746 275.439 803.827 277.668 810.655 282.127C817.203 286.446 820.478 291.811 820.478 298.22C820.478 301.843 819.433 304.699 817.343 306.789C815.253 308.879 812.605 309.924 809.401 309.924C806.196 309.924 803.479 309.018 801.25 307.207C799.02 305.256 797.906 302.679 797.906 299.474C797.906 296.548 798.742 294.11 800.414 292.159C802.086 290.069 804.176 288.676 806.684 287.979C805.29 285.471 802.782 283.381 799.16 281.709C795.676 280.037 791.914 279.201 787.874 279.201C782.718 279.201 777.911 280.873 773.453 284.217C768.994 287.422 765.302 292.856 762.376 300.519C759.45 308.043 757.987 318.005 757.987 330.406C757.987 347.683 760.773 360.293 766.347 368.235C771.92 376.038 779.165 379.939 788.083 379.939C794.074 379.939 799.717 378.197 805.012 374.714C810.446 371.231 814.904 365.797 818.388 358.412L822.359 359.875C819.99 367.817 815.531 374.644 808.983 380.357C802.573 386.07 794.213 388.926 783.903 388.926C775.264 388.926 767.392 386.697 760.286 382.238C753.319 377.779 747.815 371.37 743.775 363.01C739.734 354.511 737.714 344.688 737.714 333.541C737.714 322.255 739.734 312.223 743.775 303.445C747.955 294.667 753.737 287.84 761.122 282.963C768.506 277.947 776.936 275.439 786.411 275.439ZM926.509 360.92C924.001 368.583 919.264 375.202 912.297 380.775C905.47 386.209 897.18 388.926 887.426 388.926C877.534 388.926 868.965 386.697 861.719 382.238C854.474 377.64 848.901 371.3 844.999 363.219C841.237 354.998 839.356 345.524 839.356 334.795C839.356 322.673 841.307 312.153 845.208 303.236C849.11 294.319 854.613 287.491 861.719 282.754C868.825 277.877 877.116 275.439 886.59 275.439C899.13 275.439 908.744 279.271 915.432 286.934C922.26 294.458 925.673 305.953 925.673 321.419H860.256C859.838 325.32 859.629 329.779 859.629 334.795C859.629 343.991 861.092 352.003 864.018 358.83C867.084 365.657 871.055 370.952 875.931 374.714C880.947 378.337 886.172 380.148 891.606 380.148C898.294 380.148 904.216 378.546 909.371 375.341C914.527 372.136 918.846 366.772 922.329 359.248L926.509 360.92ZM885.754 279.41C879.206 279.41 873.563 282.615 868.825 289.024C864.088 295.433 861.162 304.908 860.047 317.448H905.609C905.888 306.58 904.286 297.523 900.802 290.278C897.458 283.033 892.442 279.41 885.754 279.41ZM1011.75 275.439C1021.51 275.439 1028.89 278.086 1033.91 283.381C1036.55 286.168 1038.43 289.651 1039.55 293.831C1040.66 298.011 1041.22 303.654 1041.22 310.76V366.563C1041.22 372.276 1042.41 376.247 1044.77 378.476C1047.14 380.566 1051.25 381.611 1057.1 381.611V386C1044.29 385.443 1035.93 385.164 1032.02 385.164C1028.12 385.164 1020.32 385.443 1008.62 386V381.611C1013.77 381.611 1017.33 380.566 1019.28 378.476C1021.37 376.247 1022.41 372.276 1022.41 366.563V306.162C1022.41 298.359 1021.3 292.438 1019.07 288.397C1016.84 284.217 1012.31 282.127 1005.48 282.127C999.769 282.127 994.683 283.799 990.225 287.143C985.766 290.487 982.283 295.085 979.775 300.937C977.406 306.65 976.222 313.059 976.222 320.165V366.563C976.222 372.276 977.197 376.247 979.148 378.476C981.238 380.566 984.86 381.611 990.016 381.611V386C978.312 385.443 970.509 385.164 966.608 385.164C962.706 385.164 954.346 385.443 941.528 386V381.611C947.38 381.611 951.49 380.566 953.859 378.476C956.227 376.247 957.412 372.276 957.412 366.563V301.146C957.412 294.737 956.227 290.069 953.859 287.143C951.49 284.217 947.38 282.754 941.528 282.754V278.365C945.986 278.783 950.306 278.992 954.486 278.992C963.264 278.992 970.509 278.017 976.222 276.066V300.728C979.705 291.811 984.512 285.401 990.643 281.5C996.913 277.459 1003.95 275.439 1011.75 275.439ZM1103.64 275.439C1108.66 275.439 1113.12 276.205 1117.02 277.738C1120.92 279.271 1124.06 281.082 1126.43 283.172C1127.96 284.287 1129.21 284.844 1130.19 284.844C1132.7 284.844 1134.23 281.779 1134.79 275.648H1139.59C1139.04 282.475 1138.76 294.319 1138.76 311.178H1133.95C1132.42 301.982 1129.42 294.388 1124.96 288.397C1120.64 282.406 1114.16 279.41 1105.53 279.41C1100.51 279.41 1096.4 280.873 1093.19 283.799C1089.99 286.586 1088.39 290.487 1088.39 295.503C1088.39 300.38 1090.06 304.49 1093.4 307.834C1096.75 311.039 1102.11 314.94 1109.5 319.538C1110.75 320.235 1112.63 321.419 1115.14 323.091C1121.55 327.271 1126.7 330.963 1130.61 334.168C1134.51 337.373 1137.64 341.065 1140.01 345.245C1142.52 349.425 1143.77 354.232 1143.77 359.666C1143.77 368.862 1140.29 376.038 1133.32 381.193C1126.5 386.348 1118.07 388.926 1108.03 388.926C1101.76 388.926 1096.26 387.951 1091.52 386C1088.46 384.467 1085.6 382.586 1082.95 380.357C1082.4 379.8 1081.77 379.521 1081.07 379.521C1080.1 379.521 1079.19 380.218 1078.36 381.611C1077.66 383.004 1077.1 384.955 1076.68 387.463H1071.88C1072.43 379.521 1072.71 365.588 1072.71 345.663H1077.52C1079.05 358.76 1081.84 368.583 1085.88 375.132C1089.92 381.541 1096.82 384.746 1106.57 384.746C1111.45 384.746 1115.77 383.144 1119.53 379.939C1123.29 376.734 1125.17 371.718 1125.17 364.891C1125.17 359.457 1123.29 354.859 1119.53 351.097C1115.91 347.335 1109.91 342.807 1101.55 337.512C1094.73 333.193 1089.43 329.64 1085.67 326.853C1082.05 324.066 1078.98 320.653 1076.47 316.612C1073.97 312.571 1072.71 307.834 1072.71 302.4C1072.71 293.622 1075.64 286.934 1081.49 282.336C1087.34 277.738 1094.73 275.439 1103.64 275.439ZM1250.42 360.92C1247.91 368.583 1243.17 375.202 1236.21 380.775C1229.38 386.209 1221.09 388.926 1211.34 388.926C1201.44 388.926 1192.87 386.697 1185.63 382.238C1178.38 377.64 1172.81 371.3 1168.91 363.219C1165.15 354.998 1163.27 345.524 1163.27 334.795C1163.27 322.673 1165.22 312.153 1169.12 303.236C1173.02 294.319 1178.52 287.491 1185.63 282.754C1192.73 277.877 1201.02 275.439 1210.5 275.439C1223.04 275.439 1232.65 279.271 1239.34 286.934C1246.17 294.458 1249.58 305.953 1249.58 321.419H1184.17C1183.75 325.32 1183.54 329.779 1183.54 334.795C1183.54 343.991 1185 352.003 1187.93 358.83C1190.99 365.657 1194.96 370.952 1199.84 374.714C1204.86 378.337 1210.08 380.148 1215.52 380.148C1222.2 380.148 1228.13 378.546 1233.28 375.341C1238.44 372.136 1242.76 366.772 1246.24 359.248L1250.42 360.92ZM1209.66 279.41C1203.11 279.41 1197.47 282.615 1192.73 289.024C1188 295.433 1185.07 304.908 1183.96 317.448H1229.52C1229.8 306.58 1228.19 297.523 1224.71 290.278C1221.37 283.033 1216.35 279.41 1209.66 279.41Z" fill="#383637"/>
</svg>
