<svg width="1280" height="421" viewBox="0 0 1280 421" fill="none" xmlns="http://www.w3.org/2000/svg">
<path d="M274.595 235.473C286.695 236.547 298.395 238.404 307.595 247.197C314.895 254.232 318.695 262.927 319.895 272.698C320.895 280.905 319.795 288.819 318.595 297.026C314.295 326.239 297.495 348.222 277.895 368.838C276.495 370.303 274.795 371.378 274.595 373.528C266.995 378.218 260.395 384.08 253.795 389.942C251.895 390.137 250.395 391.212 248.895 392.189C228.795 405.379 206.995 414.758 182.995 418.569C162.295 421.891 141.895 421.207 122.395 412.609C100.295 402.839 86.3948 385.936 78.2948 364.05C69.2948 339.918 69.1949 315.003 72.5949 289.991C75.1949 270.45 81.195 251.691 88.495 233.323C88.895 232.444 88.8948 231.369 89.2948 230.49C90.6948 227.363 90.0949 226.386 86.3949 227.266C68.1949 231.565 49.8949 235.863 31.5949 239.869C23.6949 241.628 15.9948 244.266 7.79482 244.559C7.49482 244.559 7.09482 244.461 6.79482 244.657C4.49482 246.318 1.59482 247.881 0.294817 244.364C-1.10518 240.553 2.79492 240.065 5.39492 239.381C22.6949 235.473 39.9948 231.662 57.2948 227.656C68.7948 225.018 80.195 222.381 91.695 219.743C93.695 219.254 94.595 217.984 95.495 216.323C104.895 199.616 115.295 183.592 127.495 168.741C143.595 149.298 159.795 129.953 179.495 113.637C185.695 108.458 191.395 102.303 197.895 97.418C204.795 92.2397 211.295 86.3774 218.195 81.1991C219.695 80.0267 221.795 79.3428 222.195 77.0956C223.495 77.291 224.395 76.5094 225.295 75.8254C241.095 64.1987 257.695 53.6467 274.795 43.974C285.995 37.9164 297.395 32.152 309.195 27.1691C314.295 23.5541 320.195 21.6 326.095 19.5482C353.995 8.50774 382.395 -0.285566 412.995 0.984577C424.495 1.47309 434.295 5.67434 441.595 14.663C446.995 21.3069 447.795 28.9279 446.795 36.8419C444.695 52.1813 437.195 65.0781 427.095 76.6071C405.095 101.815 377.095 119.303 347.995 135.229C324.495 148.126 299.995 159.166 274.995 169.034C274.995 166.787 274.995 164.442 274.995 162.195C275.295 162.195 275.695 162.195 275.995 162.098C302.495 150.666 329.195 139.43 354.195 124.97C376.095 112.367 397.095 98.7857 414.895 80.906C426.595 69.0839 436.195 55.894 439.495 39.2845C441.095 30.882 441.395 22.6749 433.995 16.3242C427.895 11.0482 420.495 8.50783 412.595 7.92161C397.895 6.84687 383.395 8.8986 369.195 12.5136C336.095 21.0138 306.495 36.5486 278.095 54.7214C276.495 55.6985 274.995 56.6756 274.895 58.7274C272.295 57.7503 270.995 59.8998 269.295 60.9746C252.595 72.4059 236.995 85.2049 221.995 98.6879C187.695 130.051 158.695 165.224 138.495 208.507C152.295 204.403 164.695 200.788 176.995 196.978C191.995 192.288 206.995 187.5 221.895 182.713C222.295 184.765 222.395 186.719 221.895 188.771C220.795 189.259 219.795 189.747 218.695 190.041C191.895 199.127 164.895 207.627 137.595 215.151C134.595 215.932 132.895 217.398 131.895 220.329C128.195 231.271 124.095 242.019 120.695 253.059C110.495 285.985 103.995 319.497 105.295 354.084C105.795 367.079 108.295 379.781 115.595 391.114C122.395 401.666 131.795 408.505 144.195 411.534C158.895 415.052 173.595 413.39 188.195 410.85C201.495 408.505 214.095 403.62 226.395 398.442C230.795 396.586 236.395 395.022 239.095 390.04C240.395 389.746 241.595 389.649 242.795 388.965C254.595 381.735 265.495 373.43 275.095 363.464C280.695 358.383 285.595 352.619 289.995 346.562C304.995 325.848 314.895 303.377 314.095 277.388C313.795 268.594 311.195 260.583 305.695 253.45C299.195 244.95 282.295 240.456 274.795 243.387C270.195 242.996 265.995 244.559 261.795 245.927C245.195 251.496 233.195 263.025 222.095 275.629C201.195 300.836 187.995 329.854 178.295 360.631C176.095 367.568 173.495 374.407 173.395 381.833C171.795 383.982 171.495 386.522 170.995 388.965C166.695 388.574 167.295 385.447 167.295 382.712C167.695 354.769 173.195 327.9 184.995 302.497C193.195 284.911 203.695 268.79 219.195 256.283C220.595 255.111 222.095 254.036 222.195 251.985C224.195 252.766 225.195 251.203 226.495 250.324C229.195 248.37 231.695 245.829 234.695 244.657C247.295 239.479 260.395 235.18 274.595 235.473Z" fill="#BD96C3"/>
<path d="M274.595 235.473C260.395 235.082 247.295 239.479 234.495 244.657C231.495 245.927 228.995 248.468 226.295 250.324C224.995 251.203 223.995 252.864 221.995 251.985C221.895 230.881 221.895 209.777 221.795 188.673C222.195 186.621 222.195 184.667 221.795 182.615C221.795 154.672 221.795 126.631 221.895 98.6883C236.895 85.2052 252.495 72.4062 269.195 60.9749C270.795 59.9002 272.195 57.7507 274.795 58.7277C274.795 70.7452 274.695 82.7626 274.795 94.7801C274.795 117.252 274.895 139.626 274.995 162.098C274.995 164.345 274.995 166.69 274.995 168.937C274.795 191.213 274.695 213.392 274.595 235.473Z" fill="white"/>
<path d="M253.795 390.04C260.395 384.177 267.095 378.315 274.595 373.625C274.495 382.028 274.495 382.028 283.295 381.93C312.795 381.735 342.295 382.516 371.695 381.051C385.795 380.367 399.795 378.804 413.495 375.384C442.595 368.154 457.895 349.004 463.795 321.257C467.195 305.233 467.995 289.112 468.195 272.796C468.195 269.474 469.095 268.497 472.595 268.497C475.995 268.497 476.695 269.474 476.695 272.698C476.595 310.411 476.595 348.222 476.695 385.936C476.695 389.16 475.895 390.04 472.595 390.04C399.695 389.942 326.695 390.04 253.795 390.04Z" fill="white"/>
<path d="M274.695 44.0721C257.595 53.7447 240.995 64.2967 225.195 75.9234C224.295 76.6074 223.395 77.3888 222.095 77.1934C222.095 62.2448 222.095 47.2963 221.995 32.3476C221.995 24.9222 222.695 26.3878 215.595 26.2901C202.095 26.1924 188.595 26.1922 175.195 26.3876C171.595 26.4854 170.795 25.3129 170.795 21.991C170.795 18.6691 171.595 17.5943 175.195 17.5943C224.095 17.6921 273.095 17.6922 321.995 17.7899C323.495 17.7899 325.895 16.5197 326.095 19.6462C320.195 21.698 314.395 23.7498 309.195 27.2671C308.695 26.8763 308.195 26.2901 307.695 26.2901C297.395 26.2901 287.195 26.2901 276.895 26.2901C274.595 26.2901 274.695 27.4626 274.695 29.0258C274.695 34.0087 274.695 39.0892 274.695 44.0721Z" fill="white"/>
<path d="M238.795 390.137C217.795 390.137 196.695 390.137 175.695 390.04C174.095 390.04 171.995 391.017 170.695 389.063C171.195 386.62 171.495 384.079 173.095 381.93C187.895 381.93 202.795 381.832 217.595 382.126C221.595 382.223 222.095 380.856 222.095 377.436C221.895 358.091 222.095 338.648 221.995 319.302C221.995 304.842 221.895 290.382 221.795 275.824C232.895 263.221 244.895 251.692 261.495 246.123C265.695 244.657 269.895 243.191 274.495 243.582C274.495 262.341 274.595 281.003 274.595 299.762C274.695 321.061 274.695 342.36 274.795 363.66C265.195 373.528 254.295 381.833 242.495 389.16C241.295 389.747 240.095 389.844 238.795 390.137Z" fill="white"/>
</svg>
