<svg width="40" height="23" viewBox="0 0 40 23" fill="none" xmlns="http://www.w3.org/2000/svg">
<path d="M19.9972 15.0755L5.70893 0.970305C5.08177 0.352616 4.23116 0.00560021 3.34422 0.00560021C2.45728 0.00560021 1.60666 0.352616 0.979498 0.970305C0.352336 1.58799 0 2.42576 0 3.2993C0 4.17284 0.352336 5.01061 0.979498 5.6283L17.6324 22.0297C17.9421 22.3372 18.3104 22.5812 18.7163 22.7477C19.1222 22.9143 19.5575 23 19.9972 23C20.4368 23 20.8722 22.9143 21.278 22.7477C21.6839 22.5812 22.0523 22.3372 22.3619 22.0297L39.0148 5.6283C39.327 5.32335 39.5748 4.96055 39.7439 4.56082C39.9129 4.16109 40 3.73234 40 3.2993C40 2.86626 39.9129 2.43751 39.7439 2.03778C39.5748 1.63805 39.327 1.27525 39.0148 0.970305C38.7052 0.662849 38.3368 0.41881 37.931 0.252274C37.5251 0.0857389 37.0898 5.21395e-07 36.6501 5.21395e-07C36.2104 5.21395e-07 35.7751 0.0857389 35.3692 0.252274C34.9634 0.41881 34.595 0.662849 34.2854 0.970305L19.9972 15.0755Z" fill="#FFF8FB"/>
</svg>
