<svg width="24" height="21" viewBox="0 0 24 21" fill="none" xmlns="http://www.w3.org/2000/svg">
<path d="M24 2.41286C23.1174 2.80339 22.157 3.08446 21.1676 3.19392C22.1948 2.568 22.9639 1.57913 23.3308 0.412861C22.367 1.00099 21.3111 1.4134 20.2101 1.6318C19.7499 1.12714 19.1933 0.725109 18.575 0.450753C17.9567 0.176397 17.2899 0.0355952 16.6163 0.0371217C13.8906 0.0371217 11.6986 2.30339 11.6986 5.08446C11.6986 5.47499 11.7447 5.86552 11.8197 6.24126C7.73849 6.02233 4.09855 4.02233 1.67864 0.960198C1.23771 1.73273 1.00665 2.61234 1.00949 3.50753C1.00949 5.25901 1.87766 6.80339 3.20154 7.71167C2.42136 7.68016 1.65944 7.46019 0.977767 7.06966V7.13179C0.977767 9.58445 2.66795 11.617 4.92056 12.0845C4.49761 12.1971 4.06251 12.2548 3.62553 12.256C3.30537 12.256 3.00252 12.2235 2.69679 12.1791C3.31979 14.1791 5.134 15.6318 7.29432 15.6791C5.60413 17.0371 3.48708 17.8359 1.18832 17.8359C0.775868 17.8359 0.395145 17.8211 0 17.7738C2.18051 19.2087 4.7677 20.0371 7.5539 20.0371C16.599 20.0371 21.5484 12.3507 21.5484 5.67913C21.5484 5.4602 21.5484 5.24126 21.534 5.02233C22.4915 4.30339 23.3308 3.41286 24 2.41286Z" fill="#FFF8FB"/>
</svg>
